<mxfile host="Electron" agent="Mozilla/5.0 (Windows NT 10.0; Win64; x64) AppleWebKit/537.36 (KHTML, like Gecko) draw.io/26.2.2 Chrome/134.0.6998.178 Electron/35.1.2 Safari/537.36" version="26.2.2" pages="2">
  <diagram name="ERD" id="DCxPy9mkm5As2SZnDUXS">
    <mxGraphModel dx="3333" dy="1467" grid="1" gridSize="10" guides="1" tooltips="1" connect="1" arrows="1" fold="1" page="1" pageScale="1" pageWidth="3300" pageHeight="4681" math="0" shadow="0">
      <root>
        <mxCell id="0" />
        <mxCell id="1" parent="0" />
        <mxCell id="u7G3lc30cp1mZhsRT5WW-1" value="&lt;h3&gt;&lt;font style=&quot;font-size: 18px;&quot; face=&quot;Comic Sans MS&quot;&gt;&lt;i&gt;User&lt;/i&gt;&lt;/font&gt;&lt;/h3&gt;" style="rounded=0;whiteSpace=wrap;html=1;" parent="1" vertex="1">
          <mxGeometry x="515" y="670" width="120" height="60" as="geometry" />
        </mxCell>
        <mxCell id="u7G3lc30cp1mZhsRT5WW-2" value="&lt;h3&gt;&lt;font style=&quot;font-size: 18px;&quot; face=&quot;Comic Sans MS&quot;&gt;&lt;u&gt;user_id&lt;/u&gt;&lt;/font&gt;&lt;/h3&gt;" style="ellipse;whiteSpace=wrap;html=1;" parent="1" vertex="1">
          <mxGeometry x="580" y="470" width="130" height="60" as="geometry" />
        </mxCell>
        <mxCell id="u7G3lc30cp1mZhsRT5WW-3" value="" style="endArrow=none;html=1;rounded=0;entryX=0.5;entryY=1;entryDx=0;entryDy=0;exitX=0.5;exitY=0;exitDx=0;exitDy=0;" parent="1" source="u7G3lc30cp1mZhsRT5WW-1" target="u7G3lc30cp1mZhsRT5WW-2" edge="1">
          <mxGeometry width="50" height="50" relative="1" as="geometry">
            <mxPoint x="470" y="720" as="sourcePoint" />
            <mxPoint x="520" y="670" as="targetPoint" />
          </mxGeometry>
        </mxCell>
        <mxCell id="u7G3lc30cp1mZhsRT5WW-4" value="&lt;h3&gt;&lt;font style=&quot;font-size: 18px;&quot; face=&quot;Comic Sans MS&quot;&gt;email&lt;/font&gt;&lt;/h3&gt;" style="ellipse;whiteSpace=wrap;html=1;" parent="1" vertex="1">
          <mxGeometry x="445" y="460" width="130" height="60" as="geometry" />
        </mxCell>
        <mxCell id="u7G3lc30cp1mZhsRT5WW-5" value="&lt;h3&gt;&lt;font style=&quot;font-size: 18px;&quot; face=&quot;Comic Sans MS&quot;&gt;password&lt;/font&gt;&lt;/h3&gt;" style="ellipse;whiteSpace=wrap;html=1;" parent="1" vertex="1">
          <mxGeometry x="795" y="570" width="130" height="60" as="geometry" />
        </mxCell>
        <mxCell id="u7G3lc30cp1mZhsRT5WW-6" value="&lt;h3&gt;&lt;font style=&quot;font-size: 18px;&quot; face=&quot;Comic Sans MS&quot;&gt;username&lt;/font&gt;&lt;/h3&gt;" style="ellipse;whiteSpace=wrap;html=1;" parent="1" vertex="1">
          <mxGeometry x="715" y="510" width="130" height="60" as="geometry" />
        </mxCell>
        <mxCell id="u7G3lc30cp1mZhsRT5WW-7" value="" style="endArrow=none;html=1;rounded=0;entryX=0;entryY=1;entryDx=0;entryDy=0;exitX=0.667;exitY=0;exitDx=0;exitDy=0;exitPerimeter=0;" parent="1" source="u7G3lc30cp1mZhsRT5WW-1" target="u7G3lc30cp1mZhsRT5WW-6" edge="1">
          <mxGeometry width="50" height="50" relative="1" as="geometry">
            <mxPoint x="675" y="660" as="sourcePoint" />
            <mxPoint x="620" y="611" as="targetPoint" />
          </mxGeometry>
        </mxCell>
        <mxCell id="u7G3lc30cp1mZhsRT5WW-8" value="" style="endArrow=none;html=1;rounded=0;entryX=0.065;entryY=0.767;entryDx=0;entryDy=0;exitX=0.997;exitY=0.64;exitDx=0;exitDy=0;exitPerimeter=0;entryPerimeter=0;" parent="1" source="u7G3lc30cp1mZhsRT5WW-1" target="u7G3lc30cp1mZhsRT5WW-5" edge="1">
          <mxGeometry width="50" height="50" relative="1" as="geometry">
            <mxPoint x="630" y="779" as="sourcePoint" />
            <mxPoint x="679" y="710" as="targetPoint" />
          </mxGeometry>
        </mxCell>
        <mxCell id="u7G3lc30cp1mZhsRT5WW-9" value="&lt;h3&gt;&lt;font style=&quot;font-size: 18px;&quot; face=&quot;Comic Sans MS&quot;&gt;phone&lt;/font&gt;&lt;/h3&gt;" style="ellipse;whiteSpace=wrap;html=1;" parent="1" vertex="1">
          <mxGeometry x="245" y="648" width="130" height="60" as="geometry" />
        </mxCell>
        <mxCell id="u7G3lc30cp1mZhsRT5WW-10" value="" style="endArrow=none;html=1;rounded=0;entryX=0.664;entryY=0.974;entryDx=0;entryDy=0;exitX=0.25;exitY=0;exitDx=0;exitDy=0;entryPerimeter=0;" parent="1" source="u7G3lc30cp1mZhsRT5WW-1" target="u7G3lc30cp1mZhsRT5WW-4" edge="1">
          <mxGeometry width="50" height="50" relative="1" as="geometry">
            <mxPoint x="515" y="720" as="sourcePoint" />
            <mxPoint x="460" y="671" as="targetPoint" />
          </mxGeometry>
        </mxCell>
        <mxCell id="u7G3lc30cp1mZhsRT5WW-11" value="" style="endArrow=none;html=1;rounded=0;exitX=0;exitY=0.5;exitDx=0;exitDy=0;" parent="1" source="u7G3lc30cp1mZhsRT5WW-1" target="u7G3lc30cp1mZhsRT5WW-9" edge="1">
          <mxGeometry width="50" height="50" relative="1" as="geometry">
            <mxPoint x="535" y="703" as="sourcePoint" />
            <mxPoint x="560" y="780" as="targetPoint" />
          </mxGeometry>
        </mxCell>
        <mxCell id="u7G3lc30cp1mZhsRT5WW-13" value="&lt;h3&gt;&lt;font style=&quot;font-size: 18px;&quot; face=&quot;Comic Sans MS&quot;&gt;address&lt;/font&gt;&lt;/h3&gt;" style="ellipse;whiteSpace=wrap;html=1;" parent="1" vertex="1">
          <mxGeometry x="295" y="503" width="130" height="60" as="geometry" />
        </mxCell>
        <mxCell id="u7G3lc30cp1mZhsRT5WW-19" value="&lt;h3&gt;&lt;font style=&quot;font-size: 18px;&quot; face=&quot;Comic Sans MS&quot;&gt;&lt;i&gt;Admin&lt;/i&gt;&lt;/font&gt;&lt;/h3&gt;" style="rounded=0;whiteSpace=wrap;html=1;" parent="1" vertex="1">
          <mxGeometry x="2555" y="459.56" width="120" height="60" as="geometry" />
        </mxCell>
        <mxCell id="u7G3lc30cp1mZhsRT5WW-20" value="&lt;h3&gt;&lt;font style=&quot;font-size: 18px;&quot; face=&quot;Comic Sans MS&quot;&gt;&lt;u&gt;Admin_id&lt;/u&gt;&lt;/font&gt;&lt;/h3&gt;" style="ellipse;whiteSpace=wrap;html=1;" parent="1" vertex="1">
          <mxGeometry x="2410" y="374.56" width="130" height="60" as="geometry" />
        </mxCell>
        <mxCell id="u7G3lc30cp1mZhsRT5WW-21" value="" style="endArrow=none;html=1;rounded=0;entryX=0.595;entryY=0.995;entryDx=0;entryDy=0;exitX=0.003;exitY=0.147;exitDx=0;exitDy=0;exitPerimeter=0;entryPerimeter=0;" parent="1" source="u7G3lc30cp1mZhsRT5WW-19" target="u7G3lc30cp1mZhsRT5WW-20" edge="1">
          <mxGeometry width="50" height="50" relative="1" as="geometry">
            <mxPoint x="2485" y="509.56" as="sourcePoint" />
            <mxPoint x="2535" y="459.56" as="targetPoint" />
          </mxGeometry>
        </mxCell>
        <mxCell id="u7G3lc30cp1mZhsRT5WW-23" value="&lt;h3&gt;&lt;font style=&quot;font-size: 18px;&quot; face=&quot;Comic Sans MS&quot;&gt;password&lt;/font&gt;&lt;/h3&gt;" style="ellipse;whiteSpace=wrap;html=1;" parent="1" vertex="1">
          <mxGeometry x="2720" y="393.56" width="130" height="60" as="geometry" />
        </mxCell>
        <mxCell id="u7G3lc30cp1mZhsRT5WW-24" value="&lt;h3&gt;&lt;font style=&quot;font-size: 18px;&quot; face=&quot;Comic Sans MS&quot;&gt;Admin_name&lt;/font&gt;&lt;/h3&gt;" style="ellipse;whiteSpace=wrap;html=1;" parent="1" vertex="1">
          <mxGeometry x="2575" y="349.56" width="130" height="60" as="geometry" />
        </mxCell>
        <mxCell id="u7G3lc30cp1mZhsRT5WW-25" value="" style="endArrow=none;html=1;rounded=0;entryX=0.5;entryY=1;entryDx=0;entryDy=0;exitX=0.667;exitY=0;exitDx=0;exitDy=0;exitPerimeter=0;" parent="1" source="u7G3lc30cp1mZhsRT5WW-19" target="u7G3lc30cp1mZhsRT5WW-24" edge="1">
          <mxGeometry width="50" height="50" relative="1" as="geometry">
            <mxPoint x="2690" y="449.56" as="sourcePoint" />
            <mxPoint x="2635" y="400.56" as="targetPoint" />
          </mxGeometry>
        </mxCell>
        <mxCell id="u7G3lc30cp1mZhsRT5WW-26" value="" style="endArrow=none;html=1;rounded=0;entryX=0.246;entryY=0.925;entryDx=0;entryDy=0;exitX=0.997;exitY=0.64;exitDx=0;exitDy=0;exitPerimeter=0;entryPerimeter=0;" parent="1" source="u7G3lc30cp1mZhsRT5WW-19" target="u7G3lc30cp1mZhsRT5WW-23" edge="1">
          <mxGeometry width="50" height="50" relative="1" as="geometry">
            <mxPoint x="2645" y="568.56" as="sourcePoint" />
            <mxPoint x="2694" y="499.56" as="targetPoint" />
          </mxGeometry>
        </mxCell>
        <mxCell id="u7G3lc30cp1mZhsRT5WW-39" value="&lt;h3&gt;&lt;font style=&quot;font-size: 18px;&quot; face=&quot;Comic Sans MS&quot;&gt;&lt;i&gt;Book&lt;/i&gt;&lt;/font&gt;&lt;/h3&gt;" style="rounded=0;whiteSpace=wrap;html=1;" parent="1" vertex="1">
          <mxGeometry x="1955" y="1146" width="120" height="60" as="geometry" />
        </mxCell>
        <mxCell id="u7G3lc30cp1mZhsRT5WW-40" value="&lt;h3&gt;&lt;font style=&quot;font-size: 18px;&quot; face=&quot;Comic Sans MS&quot;&gt;&lt;u&gt;Book_id&lt;/u&gt;&lt;/font&gt;&lt;/h3&gt;" style="ellipse;whiteSpace=wrap;html=1;" parent="1" vertex="1">
          <mxGeometry x="1890" y="1552" width="130" height="50" as="geometry" />
        </mxCell>
        <mxCell id="u7G3lc30cp1mZhsRT5WW-41" value="" style="endArrow=none;html=1;rounded=0;exitX=0.59;exitY=1.023;exitDx=0;exitDy=0;exitPerimeter=0;entryX=0.557;entryY=0.034;entryDx=0;entryDy=0;entryPerimeter=0;" parent="1" source="u7G3lc30cp1mZhsRT5WW-39" target="u7G3lc30cp1mZhsRT5WW-40" edge="1">
          <mxGeometry width="50" height="50" relative="1" as="geometry">
            <mxPoint x="1885" y="1196" as="sourcePoint" />
            <mxPoint x="1690" y="1293" as="targetPoint" />
          </mxGeometry>
        </mxCell>
        <mxCell id="u7G3lc30cp1mZhsRT5WW-43" value="&lt;h3&gt;&lt;font style=&quot;font-size: 18px;&quot; face=&quot;Comic Sans MS&quot;&gt;Book_title&lt;/font&gt;&lt;/h3&gt;" style="ellipse;whiteSpace=wrap;html=1;" parent="1" vertex="1">
          <mxGeometry x="1630" y="780" width="130" height="60" as="geometry" />
        </mxCell>
        <mxCell id="u7G3lc30cp1mZhsRT5WW-44" value="" style="endArrow=none;html=1;rounded=0;entryX=0.5;entryY=1;entryDx=0;entryDy=0;exitX=0.25;exitY=0;exitDx=0;exitDy=0;" parent="1" source="u7G3lc30cp1mZhsRT5WW-39" target="u7G3lc30cp1mZhsRT5WW-43" edge="1">
          <mxGeometry width="50" height="50" relative="1" as="geometry">
            <mxPoint x="2090" y="1136" as="sourcePoint" />
            <mxPoint x="2035" y="1087" as="targetPoint" />
          </mxGeometry>
        </mxCell>
        <mxCell id="u7G3lc30cp1mZhsRT5WW-50" value="&lt;h3&gt;&lt;font style=&quot;font-size: 18px;&quot; face=&quot;Comic Sans MS&quot;&gt;Publication_date&lt;/font&gt;&lt;/h3&gt;" style="ellipse;whiteSpace=wrap;html=1;" parent="1" vertex="1">
          <mxGeometry x="1660" y="1420" width="190" height="60" as="geometry" />
        </mxCell>
        <mxCell id="u7G3lc30cp1mZhsRT5WW-51" value="&lt;h3&gt;&lt;font style=&quot;font-size: 18px;&quot; face=&quot;Comic Sans MS&quot;&gt;language&lt;/font&gt;&lt;/h3&gt;" style="ellipse;whiteSpace=wrap;html=1;" parent="1" vertex="1">
          <mxGeometry x="1950" y="793" width="130" height="60" as="geometry" />
        </mxCell>
        <mxCell id="u7G3lc30cp1mZhsRT5WW-52" value="" style="endArrow=none;html=1;rounded=0;entryX=0.75;entryY=0;entryDx=0;entryDy=0;exitX=0.5;exitY=1;exitDx=0;exitDy=0;" parent="1" source="u7G3lc30cp1mZhsRT5WW-51" target="u7G3lc30cp1mZhsRT5WW-39" edge="1">
          <mxGeometry width="50" height="50" relative="1" as="geometry">
            <mxPoint x="1864" y="1248" as="sourcePoint" />
            <mxPoint x="1872.5" y="1206" as="targetPoint" />
          </mxGeometry>
        </mxCell>
        <mxCell id="u7G3lc30cp1mZhsRT5WW-53" value="" style="endArrow=none;html=1;rounded=0;entryX=0.25;entryY=1;entryDx=0;entryDy=0;" parent="1" source="u7G3lc30cp1mZhsRT5WW-50" edge="1" target="u7G3lc30cp1mZhsRT5WW-39">
          <mxGeometry width="50" height="50" relative="1" as="geometry">
            <mxPoint x="2015" y="1308" as="sourcePoint" />
            <mxPoint x="1970" y="1220" as="targetPoint" />
          </mxGeometry>
        </mxCell>
        <mxCell id="u7G3lc30cp1mZhsRT5WW-55" value="&lt;h3&gt;&lt;font style=&quot;font-size: 18px;&quot; face=&quot;Comic Sans MS&quot;&gt;Price&lt;/font&gt;&lt;/h3&gt;" style="ellipse;whiteSpace=wrap;html=1;" parent="1" vertex="1">
          <mxGeometry x="1840" y="853" width="110" height="60" as="geometry" />
        </mxCell>
        <mxCell id="u7G3lc30cp1mZhsRT5WW-56" value="" style="endArrow=none;html=1;rounded=0;entryX=0.392;entryY=-0.001;entryDx=0;entryDy=0;exitX=0.5;exitY=1;exitDx=0;exitDy=0;entryPerimeter=0;" parent="1" source="u7G3lc30cp1mZhsRT5WW-55" target="u7G3lc30cp1mZhsRT5WW-39" edge="1">
          <mxGeometry width="50" height="50" relative="1" as="geometry">
            <mxPoint x="1815" y="1236" as="sourcePoint" />
            <mxPoint x="1865" y="1186" as="targetPoint" />
          </mxGeometry>
        </mxCell>
        <mxCell id="u7G3lc30cp1mZhsRT5WW-58" value="&lt;h3&gt;&lt;font style=&quot;font-size: 18px;&quot; face=&quot;Comic Sans MS&quot;&gt;describtion&lt;/font&gt;&lt;/h3&gt;" style="ellipse;whiteSpace=wrap;html=1;" parent="1" vertex="1">
          <mxGeometry x="1720" y="1569" width="150" height="60" as="geometry" />
        </mxCell>
        <mxCell id="u7G3lc30cp1mZhsRT5WW-60" value="" style="endArrow=none;html=1;rounded=0;exitX=0.712;exitY=0.117;exitDx=0;exitDy=0;exitPerimeter=0;entryX=0.5;entryY=1;entryDx=0;entryDy=0;" parent="1" source="u7G3lc30cp1mZhsRT5WW-58" target="u7G3lc30cp1mZhsRT5WW-39" edge="1">
          <mxGeometry width="50" height="50" relative="1" as="geometry">
            <mxPoint x="1803" y="1201" as="sourcePoint" />
            <mxPoint x="2000" y="1220" as="targetPoint" />
          </mxGeometry>
        </mxCell>
        <mxCell id="u7G3lc30cp1mZhsRT5WW-61" value="&lt;h3&gt;&lt;font style=&quot;font-size: 18px;&quot; face=&quot;Comic Sans MS&quot;&gt;page_count&lt;/font&gt;&lt;/h3&gt;" style="ellipse;whiteSpace=wrap;html=1;" parent="1" vertex="1">
          <mxGeometry x="2180" y="1532" width="130" height="60" as="geometry" />
        </mxCell>
        <mxCell id="u7G3lc30cp1mZhsRT5WW-62" value="" style="endArrow=none;html=1;rounded=0;exitX=0.5;exitY=0;exitDx=0;exitDy=0;entryX=0.842;entryY=0.98;entryDx=0;entryDy=0;entryPerimeter=0;" parent="1" source="u7G3lc30cp1mZhsRT5WW-61" target="u7G3lc30cp1mZhsRT5WW-39" edge="1">
          <mxGeometry width="50" height="50" relative="1" as="geometry">
            <mxPoint x="1825" y="1140" as="sourcePoint" />
            <mxPoint x="2060" y="1213" as="targetPoint" />
          </mxGeometry>
        </mxCell>
        <mxCell id="u7G3lc30cp1mZhsRT5WW-63" value="&lt;h3&gt;&lt;font face=&quot;Comic Sans MS&quot;&gt;&lt;span style=&quot;font-size: 18px;&quot;&gt;rating&lt;/span&gt;&lt;/font&gt;&lt;/h3&gt;" style="ellipse;whiteSpace=wrap;html=1;" parent="1" vertex="1">
          <mxGeometry x="2020" y="1440" width="130" height="60" as="geometry" />
        </mxCell>
        <mxCell id="u7G3lc30cp1mZhsRT5WW-64" value="" style="endArrow=none;html=1;rounded=0;entryX=0.5;entryY=0;entryDx=0;entryDy=0;exitX=0.75;exitY=1;exitDx=0;exitDy=0;" parent="1" source="u7G3lc30cp1mZhsRT5WW-39" target="u7G3lc30cp1mZhsRT5WW-63" edge="1">
          <mxGeometry width="50" height="50" relative="1" as="geometry">
            <mxPoint x="2065" y="1126" as="sourcePoint" />
            <mxPoint x="2103" y="1094" as="targetPoint" />
          </mxGeometry>
        </mxCell>
        <mxCell id="u7G3lc30cp1mZhsRT5WW-65" value="&lt;h3&gt;&lt;font style=&quot;font-size: 18px;&quot; face=&quot;Comic Sans MS&quot;&gt;&lt;i&gt;Category&lt;/i&gt;&lt;/font&gt;&lt;/h3&gt;" style="rounded=0;whiteSpace=wrap;html=1;" parent="1" vertex="1">
          <mxGeometry x="2760" y="1383" width="120" height="60" as="geometry" />
        </mxCell>
        <mxCell id="u7G3lc30cp1mZhsRT5WW-66" value="&lt;h3&gt;&lt;font style=&quot;font-size: 18px;&quot; face=&quot;Comic Sans MS&quot;&gt;&lt;u&gt;Cat_id&lt;/u&gt;&lt;/font&gt;&lt;/h3&gt;" style="ellipse;whiteSpace=wrap;html=1;" parent="1" vertex="1">
          <mxGeometry x="3000" y="1362.5" width="130" height="60" as="geometry" />
        </mxCell>
        <mxCell id="u7G3lc30cp1mZhsRT5WW-67" value="" style="endArrow=none;html=1;rounded=0;exitX=1;exitY=0.5;exitDx=0;exitDy=0;" parent="1" source="u7G3lc30cp1mZhsRT5WW-65" target="u7G3lc30cp1mZhsRT5WW-66" edge="1">
          <mxGeometry width="50" height="50" relative="1" as="geometry">
            <mxPoint x="2785" y="1470" as="sourcePoint" />
            <mxPoint x="2835" y="1420" as="targetPoint" />
          </mxGeometry>
        </mxCell>
        <mxCell id="u7G3lc30cp1mZhsRT5WW-69" value="&lt;h3&gt;&lt;font style=&quot;font-size: 18px;&quot; face=&quot;Comic Sans MS&quot;&gt;Cat_name&lt;/font&gt;&lt;/h3&gt;" style="ellipse;whiteSpace=wrap;html=1;" parent="1" vertex="1">
          <mxGeometry x="2840" y="1547" width="130" height="60" as="geometry" />
        </mxCell>
        <mxCell id="u7G3lc30cp1mZhsRT5WW-70" value="" style="endArrow=none;html=1;rounded=0;exitX=0.5;exitY=1;exitDx=0;exitDy=0;" parent="1" source="u7G3lc30cp1mZhsRT5WW-65" target="u7G3lc30cp1mZhsRT5WW-69" edge="1">
          <mxGeometry width="50" height="50" relative="1" as="geometry">
            <mxPoint x="2990" y="1410" as="sourcePoint" />
            <mxPoint x="2935" y="1361" as="targetPoint" />
          </mxGeometry>
        </mxCell>
        <mxCell id="u7G3lc30cp1mZhsRT5WW-90" value="&lt;h3&gt;&lt;font style=&quot;font-size: 18px;&quot; face=&quot;Comic Sans MS&quot;&gt;&lt;i&gt;Order&lt;/i&gt;&lt;/font&gt;&lt;/h3&gt;" style="rounded=0;whiteSpace=wrap;html=1;" parent="1" vertex="1">
          <mxGeometry x="495" y="1309" width="120" height="60" as="geometry" />
        </mxCell>
        <mxCell id="u7G3lc30cp1mZhsRT5WW-91" value="&lt;h3&gt;&lt;font style=&quot;font-size: 18px;&quot; face=&quot;Comic Sans MS&quot;&gt;&lt;u&gt;Order_id&lt;/u&gt;&lt;/font&gt;&lt;/h3&gt;" style="ellipse;whiteSpace=wrap;html=1;" parent="1" vertex="1">
          <mxGeometry x="770" y="1552" width="130" height="60" as="geometry" />
        </mxCell>
        <mxCell id="u7G3lc30cp1mZhsRT5WW-92" value="" style="endArrow=none;html=1;rounded=0;entryX=0;entryY=0;entryDx=0;entryDy=0;exitX=1;exitY=0.5;exitDx=0;exitDy=0;" parent="1" source="u7G3lc30cp1mZhsRT5WW-90" target="u7G3lc30cp1mZhsRT5WW-91" edge="1">
          <mxGeometry width="50" height="50" relative="1" as="geometry">
            <mxPoint x="1165.3600000000001" y="1404.8199999999997" as="sourcePoint" />
            <mxPoint x="1145" y="1396" as="targetPoint" />
          </mxGeometry>
        </mxCell>
        <mxCell id="u7G3lc30cp1mZhsRT5WW-93" value="&lt;h3&gt;&lt;font style=&quot;font-size: 18px;&quot; face=&quot;Comic Sans MS&quot;&gt;order_status&lt;/font&gt;&lt;/h3&gt;" style="ellipse;whiteSpace=wrap;html=1;" parent="1" vertex="1">
          <mxGeometry x="160" y="1456" width="130" height="60" as="geometry" />
        </mxCell>
        <mxCell id="u7G3lc30cp1mZhsRT5WW-94" value="&lt;h3&gt;&lt;font style=&quot;font-size: 18px;&quot; face=&quot;Comic Sans MS&quot;&gt;order_date&lt;/font&gt;&lt;/h3&gt;" style="ellipse;whiteSpace=wrap;html=1;" parent="1" vertex="1">
          <mxGeometry x="260" y="1232" width="130" height="60" as="geometry" />
        </mxCell>
        <mxCell id="u7G3lc30cp1mZhsRT5WW-95" value="" style="endArrow=none;html=1;rounded=0;entryX=1;entryY=1;entryDx=0;entryDy=0;exitX=0;exitY=0;exitDx=0;exitDy=0;" parent="1" source="u7G3lc30cp1mZhsRT5WW-90" target="u7G3lc30cp1mZhsRT5WW-94" edge="1">
          <mxGeometry width="50" height="50" relative="1" as="geometry">
            <mxPoint x="800" y="1203" as="sourcePoint" />
            <mxPoint x="745" y="1154" as="targetPoint" />
          </mxGeometry>
        </mxCell>
        <mxCell id="u7G3lc30cp1mZhsRT5WW-96" value="" style="endArrow=none;html=1;rounded=0;entryX=1;entryY=0;entryDx=0;entryDy=0;exitX=0;exitY=0.75;exitDx=0;exitDy=0;" parent="1" source="u7G3lc30cp1mZhsRT5WW-90" target="u7G3lc30cp1mZhsRT5WW-93" edge="1">
          <mxGeometry width="50" height="50" relative="1" as="geometry">
            <mxPoint x="755" y="1322" as="sourcePoint" />
            <mxPoint x="804" y="1253" as="targetPoint" />
          </mxGeometry>
        </mxCell>
        <mxCell id="u7G3lc30cp1mZhsRT5WW-104" value="&lt;h3&gt;&lt;font style=&quot;font-size: 18px;&quot; face=&quot;Comic Sans MS&quot;&gt;tracking_number&lt;/font&gt;&lt;/h3&gt;" style="ellipse;whiteSpace=wrap;html=1;" parent="1" vertex="1">
          <mxGeometry x="290" y="1569" width="170" height="60" as="geometry" />
        </mxCell>
        <mxCell id="u7G3lc30cp1mZhsRT5WW-105" value="" style="endArrow=none;html=1;rounded=0;entryX=0;entryY=1;entryDx=0;entryDy=0;" parent="1" source="u7G3lc30cp1mZhsRT5WW-104" target="u7G3lc30cp1mZhsRT5WW-90" edge="1">
          <mxGeometry width="50" height="50" relative="1" as="geometry">
            <mxPoint x="1025" y="1486" as="sourcePoint" />
            <mxPoint x="1165" y="1441" as="targetPoint" />
          </mxGeometry>
        </mxCell>
        <mxCell id="u7G3lc30cp1mZhsRT5WW-107" value="&lt;h3&gt;&lt;font style=&quot;font-size: 18px;&quot; face=&quot;Comic Sans MS&quot;&gt;shipping_address&lt;/font&gt;&lt;/h3&gt;" style="ellipse;whiteSpace=wrap;html=1;" parent="1" vertex="1">
          <mxGeometry x="470" y="1592" width="170" height="60" as="geometry" />
        </mxCell>
        <mxCell id="u7G3lc30cp1mZhsRT5WW-108" value="" style="endArrow=none;html=1;rounded=0;exitX=0.328;exitY=0.031;exitDx=0;exitDy=0;exitPerimeter=0;" parent="1" source="u7G3lc30cp1mZhsRT5WW-107" target="u7G3lc30cp1mZhsRT5WW-90" edge="1">
          <mxGeometry width="50" height="50" relative="1" as="geometry">
            <mxPoint x="1013" y="1451" as="sourcePoint" />
            <mxPoint x="570" y="1373" as="targetPoint" />
          </mxGeometry>
        </mxCell>
        <mxCell id="u7G3lc30cp1mZhsRT5WW-109" value="&lt;h3&gt;&lt;font style=&quot;font-size: 18px;&quot; face=&quot;Comic Sans MS&quot;&gt;total_amount&lt;/font&gt;&lt;/h3&gt;" style="ellipse;whiteSpace=wrap;html=1;" parent="1" vertex="1">
          <mxGeometry x="640" y="1582" width="130" height="60" as="geometry" />
        </mxCell>
        <mxCell id="u7G3lc30cp1mZhsRT5WW-110" value="" style="endArrow=none;html=1;rounded=0;entryX=0.705;entryY=1.034;entryDx=0;entryDy=0;exitX=0.328;exitY=0.002;exitDx=0;exitDy=0;exitPerimeter=0;entryPerimeter=0;" parent="1" source="u7G3lc30cp1mZhsRT5WW-109" target="u7G3lc30cp1mZhsRT5WW-90" edge="1">
          <mxGeometry width="50" height="50" relative="1" as="geometry">
            <mxPoint x="1035" y="1390" as="sourcePoint" />
            <mxPoint x="1162.96" y="1418.8" as="targetPoint" />
          </mxGeometry>
        </mxCell>
        <mxCell id="u7G3lc30cp1mZhsRT5WW-111" value="&lt;h3&gt;&lt;font face=&quot;Comic Sans MS&quot;&gt;&lt;span style=&quot;font-size: 18px;&quot;&gt;payment_status&lt;/span&gt;&lt;/font&gt;&lt;/h3&gt;" style="ellipse;whiteSpace=wrap;html=1;" parent="1" vertex="1">
          <mxGeometry x="140" y="1347" width="170" height="60" as="geometry" />
        </mxCell>
        <mxCell id="u7G3lc30cp1mZhsRT5WW-112" value="" style="endArrow=none;html=1;rounded=0;entryX=0.962;entryY=0.371;entryDx=0;entryDy=0;exitX=0;exitY=0.25;exitDx=0;exitDy=0;entryPerimeter=0;" parent="1" source="u7G3lc30cp1mZhsRT5WW-90" target="u7G3lc30cp1mZhsRT5WW-111" edge="1">
          <mxGeometry width="50" height="50" relative="1" as="geometry">
            <mxPoint x="775" y="1193" as="sourcePoint" />
            <mxPoint x="813" y="1161" as="targetPoint" />
          </mxGeometry>
        </mxCell>
        <mxCell id="u7G3lc30cp1mZhsRT5WW-118" value="&lt;h3&gt;&lt;font style=&quot;font-size: 18px;&quot; face=&quot;Comic Sans MS&quot;&gt;Author_name&lt;/font&gt;&lt;/h3&gt;" style="ellipse;whiteSpace=wrap;html=1;" parent="1" vertex="1">
          <mxGeometry x="2860" y="750" width="130" height="60" as="geometry" />
        </mxCell>
        <mxCell id="u7G3lc30cp1mZhsRT5WW-119" value="" style="endArrow=none;html=1;rounded=0;entryX=0.5;entryY=1;entryDx=0;entryDy=0;exitX=0.58;exitY=-0.082;exitDx=0;exitDy=0;exitPerimeter=0;" parent="1" source="9a2zuiYX98f70HpiT969-1" target="u7G3lc30cp1mZhsRT5WW-118" edge="1">
          <mxGeometry width="50" height="50" relative="1" as="geometry">
            <mxPoint x="1745.04" y="1203" as="sourcePoint" />
            <mxPoint x="1730" y="1186" as="targetPoint" />
          </mxGeometry>
        </mxCell>
        <mxCell id="u7G3lc30cp1mZhsRT5WW-125" value="&lt;h3&gt;&lt;font style=&quot;font-size: 18px;&quot; face=&quot;Comic Sans MS&quot;&gt;nationality&lt;/font&gt;&lt;/h3&gt;" style="ellipse;whiteSpace=wrap;html=1;" parent="1" vertex="1">
          <mxGeometry x="3000" y="827" width="130" height="60" as="geometry" />
        </mxCell>
        <mxCell id="u7G3lc30cp1mZhsRT5WW-126" value="" style="endArrow=none;html=1;rounded=0;exitX=0.154;exitY=0.889;exitDx=0;exitDy=0;entryX=1;entryY=0.5;entryDx=0;entryDy=0;exitPerimeter=0;" parent="1" source="u7G3lc30cp1mZhsRT5WW-125" target="9a2zuiYX98f70HpiT969-1" edge="1">
          <mxGeometry width="50" height="50" relative="1" as="geometry">
            <mxPoint x="1520" y="1239" as="sourcePoint" />
            <mxPoint x="1663" y="1255" as="targetPoint" />
          </mxGeometry>
        </mxCell>
        <mxCell id="u7G3lc30cp1mZhsRT5WW-133" value="&lt;h3&gt;&lt;font style=&quot;font-size: 18px;&quot; face=&quot;Comic Sans MS&quot;&gt;Publisher_name&lt;/font&gt;&lt;/h3&gt;" style="ellipse;whiteSpace=wrap;html=1;" parent="1" vertex="1">
          <mxGeometry x="2980" y="1000" width="150" height="60" as="geometry" />
        </mxCell>
        <mxCell id="u7G3lc30cp1mZhsRT5WW-134" value="" style="endArrow=none;html=1;rounded=0;entryX=0.1;entryY=0.722;entryDx=0;entryDy=0;entryPerimeter=0;exitX=0.59;exitY=0.014;exitDx=0;exitDy=0;exitPerimeter=0;" parent="1" source="9a2zuiYX98f70HpiT969-10" target="u7G3lc30cp1mZhsRT5WW-133" edge="1">
          <mxGeometry width="50" height="50" relative="1" as="geometry">
            <mxPoint x="2840" y="1117" as="sourcePoint" />
            <mxPoint x="2830" y="1080" as="targetPoint" />
          </mxGeometry>
        </mxCell>
        <mxCell id="u7G3lc30cp1mZhsRT5WW-135" value="&lt;h3&gt;&lt;font face=&quot;Comic Sans MS&quot;&gt;&lt;span style=&quot;font-size: 18px;&quot;&gt;email&lt;/span&gt;&lt;/font&gt;&lt;/h3&gt;" style="ellipse;whiteSpace=wrap;html=1;" parent="1" vertex="1">
          <mxGeometry x="2980" y="1220" width="130" height="60" as="geometry" />
        </mxCell>
        <mxCell id="u7G3lc30cp1mZhsRT5WW-136" value="" style="endArrow=none;html=1;rounded=0;entryX=0.5;entryY=1;entryDx=0;entryDy=0;exitX=0;exitY=0;exitDx=0;exitDy=0;" parent="1" source="u7G3lc30cp1mZhsRT5WW-135" target="9a2zuiYX98f70HpiT969-10" edge="1">
          <mxGeometry width="50" height="50" relative="1" as="geometry">
            <mxPoint x="2620" y="1133" as="sourcePoint" />
            <mxPoint x="2820.000000000001" y="1177.0000000000002" as="targetPoint" />
          </mxGeometry>
        </mxCell>
        <mxCell id="u7G3lc30cp1mZhsRT5WW-173" value="" style="endArrow=none;html=1;rounded=0;exitX=0;exitY=0;exitDx=0;exitDy=0;entryX=0.951;entryY=0.713;entryDx=0;entryDy=0;entryPerimeter=0;" parent="1" source="u7G3lc30cp1mZhsRT5WW-1" target="u7G3lc30cp1mZhsRT5WW-13" edge="1">
          <mxGeometry width="50" height="50" relative="1" as="geometry">
            <mxPoint x="626.5" y="747.5" as="sourcePoint" />
            <mxPoint x="683.5" y="772.5" as="targetPoint" />
          </mxGeometry>
        </mxCell>
        <mxCell id="u7G3lc30cp1mZhsRT5WW-181" value="&lt;h3&gt;&lt;font face=&quot;Comic Sans MS&quot;&gt;&lt;span style=&quot;font-size: 18px;&quot;&gt;quantity&lt;/span&gt;&lt;/font&gt;&lt;/h3&gt;" style="ellipse;whiteSpace=wrap;html=1;" parent="1" vertex="1">
          <mxGeometry x="1395" y="1403" width="130" height="60" as="geometry" />
        </mxCell>
        <mxCell id="u7G3lc30cp1mZhsRT5WW-182" value="" style="endArrow=none;html=1;rounded=0;entryX=0.5;entryY=0;entryDx=0;entryDy=0;exitX=0.5;exitY=1;exitDx=0;exitDy=0;" parent="1" source="9G3-QuPv8n-hs4sBgN2S-57" target="u7G3lc30cp1mZhsRT5WW-181" edge="1">
          <mxGeometry width="50" height="50" relative="1" as="geometry">
            <mxPoint x="285" y="1620" as="sourcePoint" />
            <mxPoint x="160" y="1590" as="targetPoint" />
          </mxGeometry>
        </mxCell>
        <mxCell id="u7G3lc30cp1mZhsRT5WW-183" value="&lt;h3&gt;&lt;font style=&quot;font-size: 18px;&quot; face=&quot;Comic Sans MS&quot;&gt;make&lt;/font&gt;&lt;/h3&gt;" style="strokeWidth=2;html=1;shape=mxgraph.flowchart.decision;whiteSpace=wrap;" parent="1" vertex="1">
          <mxGeometry x="505" y="1020" width="100" height="100" as="geometry" />
        </mxCell>
        <mxCell id="u7G3lc30cp1mZhsRT5WW-208" value="&lt;h3&gt;&lt;font face=&quot;Comic Sans MS&quot;&gt;&lt;span style=&quot;font-size: 18px;&quot;&gt;quantity&lt;/span&gt;&lt;/font&gt;&lt;/h3&gt;" style="ellipse;whiteSpace=wrap;html=1;" parent="1" vertex="1">
          <mxGeometry x="1390" y="1160" width="140" height="60" as="geometry" />
        </mxCell>
        <mxCell id="u7G3lc30cp1mZhsRT5WW-234" value="&lt;h3&gt;&lt;font face=&quot;Comic Sans MS&quot;&gt;&lt;span style=&quot;font-size: 18px;&quot;&gt;Contains&lt;/span&gt;&lt;/font&gt;&lt;/h3&gt;" style="strokeWidth=2;html=1;shape=mxgraph.flowchart.decision;whiteSpace=wrap;" parent="1" vertex="1">
          <mxGeometry x="2430" y="1283" width="100" height="100" as="geometry" />
        </mxCell>
        <mxCell id="9a2zuiYX98f70HpiT969-1" value="&lt;h3&gt;&lt;font style=&quot;font-size: 18px;&quot; face=&quot;Comic Sans MS&quot;&gt;&lt;i&gt;Author&lt;/i&gt;&lt;/font&gt;&lt;/h3&gt;" style="shape=ext;margin=3;double=1;whiteSpace=wrap;html=1;align=center;" parent="1" vertex="1">
          <mxGeometry x="2790" y="913" width="100" height="40" as="geometry" />
        </mxCell>
        <mxCell id="9a2zuiYX98f70HpiT969-4" value="&lt;h3&gt;&lt;font face=&quot;Comic Sans MS&quot;&gt;&lt;span style=&quot;font-size: 18px;&quot;&gt;Writes&lt;/span&gt;&lt;/font&gt;&lt;/h3&gt;" style="shape=rhombus;double=1;perimeter=rhombusPerimeter;whiteSpace=wrap;html=1;align=center;" parent="1" vertex="1">
          <mxGeometry x="2420" y="960" width="120" height="60" as="geometry" />
        </mxCell>
        <mxCell id="9a2zuiYX98f70HpiT969-7" value="&lt;h3&gt;&lt;font face=&quot;Comic Sans MS&quot;&gt;&lt;span style=&quot;font-size: 18px;&quot;&gt;Publishes&lt;/span&gt;&lt;/font&gt;&lt;/h3&gt;" style="shape=rhombus;double=1;perimeter=rhombusPerimeter;whiteSpace=wrap;html=1;align=center;" parent="1" vertex="1">
          <mxGeometry x="2420" y="1130" width="120" height="60" as="geometry" />
        </mxCell>
        <mxCell id="9a2zuiYX98f70HpiT969-10" value="&lt;h3&gt;&lt;font style=&quot;font-size: 18px;&quot; face=&quot;Comic Sans MS&quot;&gt;&lt;i&gt;Publisher&lt;/i&gt;&lt;/font&gt;&lt;/h3&gt;" style="shape=ext;margin=3;double=1;whiteSpace=wrap;html=1;align=center;" parent="1" vertex="1">
          <mxGeometry x="2780" y="1130" width="100" height="40" as="geometry" />
        </mxCell>
        <mxCell id="9a2zuiYX98f70HpiT969-24" value="&lt;h3&gt;&lt;font face=&quot;Comic Sans MS&quot;&gt;&lt;span style=&quot;font-size: 18px;&quot;&gt;Contains&lt;/span&gt;&lt;/font&gt;&lt;/h3&gt;" style="shape=rhombus;double=1;perimeter=rhombusPerimeter;whiteSpace=wrap;html=1;align=center;" parent="1" vertex="1">
          <mxGeometry x="795" y="1295" width="120" height="60" as="geometry" />
        </mxCell>
        <mxCell id="9a2zuiYX98f70HpiT969-26" value="&lt;h3&gt;&lt;font face=&quot;Comic Sans MS&quot;&gt;&lt;span style=&quot;font-size: 18px;&quot;&gt;&lt;i&gt;Order_items&lt;/i&gt;&lt;/span&gt;&lt;/font&gt;&lt;/h3&gt;" style="shape=ext;margin=3;double=1;whiteSpace=wrap;html=1;align=center;" parent="1" vertex="1">
          <mxGeometry x="1045" y="1297" width="130" height="50" as="geometry" />
        </mxCell>
        <mxCell id="9a2zuiYX98f70HpiT969-34" value="&lt;h3&gt;&lt;font style=&quot;font-size: 18px;&quot; face=&quot;Comic Sans MS&quot;&gt;&lt;i&gt;Cart&lt;/i&gt;&lt;/font&gt;&lt;/h3&gt;" style="shape=ext;margin=3;double=1;whiteSpace=wrap;html=1;align=center;" parent="1" vertex="1">
          <mxGeometry x="1040" y="1046" width="140" height="54" as="geometry" />
        </mxCell>
        <mxCell id="9a2zuiYX98f70HpiT969-35" value="&lt;h3&gt;&lt;font face=&quot;Comic Sans MS&quot;&gt;&lt;span style=&quot;font-size: 18px;&quot;&gt;has&lt;/span&gt;&lt;/font&gt;&lt;/h3&gt;" style="shape=rhombus;double=1;perimeter=rhombusPerimeter;whiteSpace=wrap;html=1;align=center;" parent="1" vertex="1">
          <mxGeometry x="795" y="1040" width="120" height="60" as="geometry" />
        </mxCell>
        <mxCell id="9a2zuiYX98f70HpiT969-40" value="&lt;h3&gt;&lt;font face=&quot;Comic Sans MS&quot;&gt;&lt;span style=&quot;font-size: 18px;&quot;&gt;has&lt;/span&gt;&lt;/font&gt;&lt;/h3&gt;" style="shape=rhombus;double=1;perimeter=rhombusPerimeter;whiteSpace=wrap;html=1;align=center;" parent="1" vertex="1">
          <mxGeometry x="800" y="846" width="120" height="60" as="geometry" />
        </mxCell>
        <mxCell id="9a2zuiYX98f70HpiT969-41" value="&lt;h3&gt;&lt;font style=&quot;font-size: 18px;&quot; face=&quot;Comic Sans MS&quot;&gt;&lt;i&gt;Wishlist&lt;/i&gt;&lt;/font&gt;&lt;/h3&gt;" style="shape=ext;margin=3;double=1;whiteSpace=wrap;html=1;align=center;" parent="1" vertex="1">
          <mxGeometry x="1040" y="858" width="140" height="48" as="geometry" />
        </mxCell>
        <mxCell id="9G3-QuPv8n-hs4sBgN2S-38" value="&lt;h3&gt;&lt;font face=&quot;Comic Sans MS&quot;&gt;&lt;span style=&quot;font-size: 18px;&quot;&gt;Contains&lt;/span&gt;&lt;/font&gt;&lt;/h3&gt;" style="shape=rhombus;double=1;perimeter=rhombusPerimeter;whiteSpace=wrap;html=1;align=center;" parent="1" vertex="1">
          <mxGeometry x="1380" y="846" width="150" height="75" as="geometry" />
        </mxCell>
        <mxCell id="9G3-QuPv8n-hs4sBgN2S-51" value="" style="endArrow=none;html=1;rounded=0;entryX=0.5;entryY=0;entryDx=0;entryDy=0;exitX=0.5;exitY=1;exitDx=0;exitDy=0;" parent="1" source="9G3-QuPv8n-hs4sBgN2S-56" target="u7G3lc30cp1mZhsRT5WW-208" edge="1">
          <mxGeometry width="50" height="50" relative="1" as="geometry">
            <mxPoint x="575" y="2053" as="sourcePoint" />
            <mxPoint x="455" y="2263" as="targetPoint" />
          </mxGeometry>
        </mxCell>
        <mxCell id="9G3-QuPv8n-hs4sBgN2S-56" value="&lt;h3&gt;&lt;font face=&quot;Comic Sans MS&quot;&gt;&lt;span style=&quot;font-size: 18px;&quot;&gt;Contains&lt;/span&gt;&lt;/font&gt;&lt;/h3&gt;" style="shape=rhombus;double=1;perimeter=rhombusPerimeter;whiteSpace=wrap;html=1;align=center;" parent="1" vertex="1">
          <mxGeometry x="1390" y="1030" width="140" height="80" as="geometry" />
        </mxCell>
        <mxCell id="9G3-QuPv8n-hs4sBgN2S-57" value="&lt;h3&gt;&lt;font face=&quot;Comic Sans MS&quot;&gt;&lt;span style=&quot;font-size: 18px;&quot;&gt;Related to&amp;nbsp;&lt;/span&gt;&lt;/font&gt;&lt;/h3&gt;" style="shape=rhombus;double=1;perimeter=rhombusPerimeter;whiteSpace=wrap;html=1;align=center;" parent="1" vertex="1">
          <mxGeometry x="1385" y="1287.5" width="150" height="75" as="geometry" />
        </mxCell>
        <mxCell id="U_JGVHaXKczGISk54v-v-3" value="" style="shape=link;html=1;rounded=0;entryX=0;entryY=0.5;entryDx=0;entryDy=0;exitX=1;exitY=0.5;exitDx=0;exitDy=0;" parent="1" source="9a2zuiYX98f70HpiT969-24" target="9a2zuiYX98f70HpiT969-26" edge="1">
          <mxGeometry relative="1" as="geometry">
            <mxPoint x="1000" y="1343" as="sourcePoint" />
            <mxPoint x="1160" y="1343" as="targetPoint" />
          </mxGeometry>
        </mxCell>
        <mxCell id="U_JGVHaXKczGISk54v-v-4" value="N" style="resizable=0;html=1;whiteSpace=wrap;align=right;verticalAlign=bottom;" parent="U_JGVHaXKczGISk54v-v-3" connectable="0" vertex="1">
          <mxGeometry x="1" relative="1" as="geometry">
            <mxPoint x="-25" as="offset" />
          </mxGeometry>
        </mxCell>
        <mxCell id="M7JRmd4wV387oKxUIXB4-1" value="" style="shape=link;html=1;rounded=0;entryX=0;entryY=0.5;entryDx=0;entryDy=0;exitX=1;exitY=0.5;exitDx=0;exitDy=0;" parent="1" source="9a2zuiYX98f70HpiT969-4" target="9a2zuiYX98f70HpiT969-1" edge="1">
          <mxGeometry relative="1" as="geometry">
            <mxPoint x="2430" y="1070" as="sourcePoint" />
            <mxPoint x="2590" y="1070" as="targetPoint" />
          </mxGeometry>
        </mxCell>
        <mxCell id="M7JRmd4wV387oKxUIXB4-2" value="1" style="resizable=0;html=1;whiteSpace=wrap;align=right;verticalAlign=bottom;" parent="M7JRmd4wV387oKxUIXB4-1" connectable="0" vertex="1">
          <mxGeometry x="1" relative="1" as="geometry">
            <mxPoint x="-30" as="offset" />
          </mxGeometry>
        </mxCell>
        <mxCell id="M7JRmd4wV387oKxUIXB4-8" value="" style="shape=link;html=1;rounded=0;entryX=1.001;entryY=0.16;entryDx=0;entryDy=0;exitX=0;exitY=0.5;exitDx=0;exitDy=0;entryPerimeter=0;" parent="1" source="9a2zuiYX98f70HpiT969-4" target="u7G3lc30cp1mZhsRT5WW-39" edge="1">
          <mxGeometry relative="1" as="geometry">
            <mxPoint x="2430" y="1070" as="sourcePoint" />
            <mxPoint x="2590" y="1070" as="targetPoint" />
          </mxGeometry>
        </mxCell>
        <mxCell id="M7JRmd4wV387oKxUIXB4-9" value="N" style="resizable=0;html=1;whiteSpace=wrap;align=right;verticalAlign=bottom;" parent="M7JRmd4wV387oKxUIXB4-8" connectable="0" vertex="1">
          <mxGeometry x="1" relative="1" as="geometry">
            <mxPoint x="55" y="-26" as="offset" />
          </mxGeometry>
        </mxCell>
        <mxCell id="M7JRmd4wV387oKxUIXB4-10" value="" style="shape=link;html=1;rounded=0;entryX=0;entryY=0.25;entryDx=0;entryDy=0;exitX=1;exitY=0.5;exitDx=0;exitDy=0;" parent="1" source="9a2zuiYX98f70HpiT969-7" target="9a2zuiYX98f70HpiT969-10" edge="1">
          <mxGeometry relative="1" as="geometry">
            <mxPoint x="2565" y="1232" as="sourcePoint" />
            <mxPoint x="2725" y="1232" as="targetPoint" />
          </mxGeometry>
        </mxCell>
        <mxCell id="M7JRmd4wV387oKxUIXB4-11" value="N" style="resizable=0;html=1;whiteSpace=wrap;align=right;verticalAlign=bottom;" parent="M7JRmd4wV387oKxUIXB4-10" connectable="0" vertex="1">
          <mxGeometry x="1" relative="1" as="geometry">
            <mxPoint x="-20" as="offset" />
          </mxGeometry>
        </mxCell>
        <mxCell id="M7JRmd4wV387oKxUIXB4-12" value="" style="shape=link;html=1;rounded=0;entryX=1;entryY=0.5;entryDx=0;entryDy=0;exitX=0.093;exitY=0.522;exitDx=0;exitDy=0;exitPerimeter=0;" parent="1" source="9a2zuiYX98f70HpiT969-7" target="u7G3lc30cp1mZhsRT5WW-39" edge="1">
          <mxGeometry relative="1" as="geometry">
            <mxPoint x="2120" y="1237" as="sourcePoint" />
            <mxPoint x="2445" y="1231" as="targetPoint" />
          </mxGeometry>
        </mxCell>
        <mxCell id="M7JRmd4wV387oKxUIXB4-13" value="N" style="resizable=0;html=1;whiteSpace=wrap;align=right;verticalAlign=bottom;" parent="M7JRmd4wV387oKxUIXB4-12" connectable="0" vertex="1">
          <mxGeometry x="1" relative="1" as="geometry">
            <mxPoint x="35" as="offset" />
          </mxGeometry>
        </mxCell>
        <mxCell id="M7JRmd4wV387oKxUIXB4-14" value="" style="shape=link;html=1;rounded=0;entryX=0.994;entryY=0.885;entryDx=0;entryDy=0;exitX=0;exitY=0.5;exitDx=0;exitDy=0;exitPerimeter=0;entryPerimeter=0;" parent="1" source="u7G3lc30cp1mZhsRT5WW-234" target="u7G3lc30cp1mZhsRT5WW-39" edge="1">
          <mxGeometry relative="1" as="geometry">
            <mxPoint x="2486" y="1309" as="sourcePoint" />
            <mxPoint x="2150" y="1314" as="targetPoint" />
          </mxGeometry>
        </mxCell>
        <mxCell id="M7JRmd4wV387oKxUIXB4-15" value="N" style="resizable=0;html=1;whiteSpace=wrap;align=right;verticalAlign=bottom;" parent="M7JRmd4wV387oKxUIXB4-14" connectable="0" vertex="1">
          <mxGeometry x="1" relative="1" as="geometry">
            <mxPoint x="26" y="7" as="offset" />
          </mxGeometry>
        </mxCell>
        <mxCell id="M7JRmd4wV387oKxUIXB4-16" value="" style="endArrow=none;html=1;rounded=0;entryX=0;entryY=0.5;entryDx=0;entryDy=0;exitX=1;exitY=0.5;exitDx=0;exitDy=0;exitPerimeter=0;" parent="1" source="u7G3lc30cp1mZhsRT5WW-234" target="u7G3lc30cp1mZhsRT5WW-65" edge="1">
          <mxGeometry relative="1" as="geometry">
            <mxPoint x="2550" y="1485.47" as="sourcePoint" />
            <mxPoint x="2710" y="1485.47" as="targetPoint" />
          </mxGeometry>
        </mxCell>
        <mxCell id="M7JRmd4wV387oKxUIXB4-17" value="N" style="resizable=0;html=1;whiteSpace=wrap;align=right;verticalAlign=bottom;" parent="M7JRmd4wV387oKxUIXB4-16" connectable="0" vertex="1">
          <mxGeometry x="1" relative="1" as="geometry">
            <mxPoint x="-40" y="-21" as="offset" />
          </mxGeometry>
        </mxCell>
        <mxCell id="5CNRIiuL0Ioi0CvN27zp-1" value="" style="shape=link;html=1;rounded=0;exitX=0.5;exitY=1;exitDx=0;exitDy=0;exitPerimeter=0;entryX=0.5;entryY=0;entryDx=0;entryDy=0;" parent="1" source="u7G3lc30cp1mZhsRT5WW-183" target="u7G3lc30cp1mZhsRT5WW-90" edge="1">
          <mxGeometry relative="1" as="geometry">
            <mxPoint x="505" y="1210" as="sourcePoint" />
            <mxPoint x="600" y="1260" as="targetPoint" />
          </mxGeometry>
        </mxCell>
        <mxCell id="5CNRIiuL0Ioi0CvN27zp-2" value="N" style="resizable=0;html=1;whiteSpace=wrap;align=right;verticalAlign=bottom;" parent="5CNRIiuL0Ioi0CvN27zp-1" connectable="0" vertex="1">
          <mxGeometry x="1" relative="1" as="geometry">
            <mxPoint x="-5" y="-29" as="offset" />
          </mxGeometry>
        </mxCell>
        <mxCell id="5CNRIiuL0Ioi0CvN27zp-3" value="" style="endArrow=none;html=1;rounded=0;exitX=0.5;exitY=0;exitDx=0;exitDy=0;exitPerimeter=0;entryX=0.366;entryY=0.926;entryDx=0;entryDy=0;entryPerimeter=0;" parent="1" source="u7G3lc30cp1mZhsRT5WW-183" target="u7G3lc30cp1mZhsRT5WW-1" edge="1">
          <mxGeometry relative="1" as="geometry">
            <mxPoint x="690" y="960" as="sourcePoint" />
            <mxPoint x="570" y="733" as="targetPoint" />
          </mxGeometry>
        </mxCell>
        <mxCell id="5CNRIiuL0Ioi0CvN27zp-4" value="N" style="resizable=0;html=1;whiteSpace=wrap;align=right;verticalAlign=bottom;" parent="5CNRIiuL0Ioi0CvN27zp-3" connectable="0" vertex="1">
          <mxGeometry x="1" relative="1" as="geometry">
            <mxPoint x="-4" y="44" as="offset" />
          </mxGeometry>
        </mxCell>
        <mxCell id="5CNRIiuL0Ioi0CvN27zp-5" value="" style="shape=link;html=1;rounded=0;exitX=0;exitY=0.5;exitDx=0;exitDy=0;entryX=1;entryY=0.25;entryDx=0;entryDy=0;" parent="1" source="9a2zuiYX98f70HpiT969-24" target="u7G3lc30cp1mZhsRT5WW-90" edge="1">
          <mxGeometry relative="1" as="geometry">
            <mxPoint x="735" y="1407" as="sourcePoint" />
            <mxPoint x="895" y="1407" as="targetPoint" />
          </mxGeometry>
        </mxCell>
        <mxCell id="5CNRIiuL0Ioi0CvN27zp-6" value="N" style="resizable=0;html=1;whiteSpace=wrap;align=right;verticalAlign=bottom;" parent="5CNRIiuL0Ioi0CvN27zp-5" connectable="0" vertex="1">
          <mxGeometry x="1" relative="1" as="geometry">
            <mxPoint x="55" y="-15" as="offset" />
          </mxGeometry>
        </mxCell>
        <mxCell id="5CNRIiuL0Ioi0CvN27zp-7" value="" style="shape=link;html=1;rounded=0;exitX=1;exitY=0.5;exitDx=0;exitDy=0;entryX=0;entryY=0.5;entryDx=0;entryDy=0;" parent="1" source="9a2zuiYX98f70HpiT969-35" target="9a2zuiYX98f70HpiT969-34" edge="1">
          <mxGeometry relative="1" as="geometry">
            <mxPoint x="950" y="900" as="sourcePoint" />
            <mxPoint x="1110" y="900" as="targetPoint" />
          </mxGeometry>
        </mxCell>
        <mxCell id="5CNRIiuL0Ioi0CvN27zp-8" value="1" style="resizable=0;html=1;whiteSpace=wrap;align=right;verticalAlign=bottom;" parent="5CNRIiuL0Ioi0CvN27zp-7" connectable="0" vertex="1">
          <mxGeometry x="1" relative="1" as="geometry">
            <mxPoint x="-30" y="-3" as="offset" />
          </mxGeometry>
        </mxCell>
        <mxCell id="5CNRIiuL0Ioi0CvN27zp-9" value="" style="shape=link;html=1;rounded=0;exitX=0;exitY=0.5;exitDx=0;exitDy=0;entryX=0.698;entryY=0.956;entryDx=0;entryDy=0;entryPerimeter=0;" parent="1" source="9a2zuiYX98f70HpiT969-35" target="u7G3lc30cp1mZhsRT5WW-1" edge="1">
          <mxGeometry relative="1" as="geometry">
            <mxPoint x="880" y="951" as="sourcePoint" />
            <mxPoint x="590" y="760" as="targetPoint" />
          </mxGeometry>
        </mxCell>
        <mxCell id="5CNRIiuL0Ioi0CvN27zp-10" value="1" style="resizable=0;html=1;whiteSpace=wrap;align=right;verticalAlign=bottom;" parent="5CNRIiuL0Ioi0CvN27zp-9" connectable="0" vertex="1">
          <mxGeometry x="1" relative="1" as="geometry">
            <mxPoint x="6" y="43" as="offset" />
          </mxGeometry>
        </mxCell>
        <mxCell id="5CNRIiuL0Ioi0CvN27zp-11" value="" style="shape=link;html=1;rounded=0;exitX=0.067;exitY=0.453;exitDx=0;exitDy=0;exitPerimeter=0;entryX=1;entryY=1;entryDx=0;entryDy=0;" parent="1" source="9a2zuiYX98f70HpiT969-40" target="u7G3lc30cp1mZhsRT5WW-1" edge="1">
          <mxGeometry relative="1" as="geometry">
            <mxPoint x="770" y="750" as="sourcePoint" />
            <mxPoint x="930" y="750" as="targetPoint" />
          </mxGeometry>
        </mxCell>
        <mxCell id="5CNRIiuL0Ioi0CvN27zp-12" value="1" style="resizable=0;html=1;whiteSpace=wrap;align=right;verticalAlign=bottom;" parent="5CNRIiuL0Ioi0CvN27zp-11" connectable="0" vertex="1">
          <mxGeometry x="1" relative="1" as="geometry">
            <mxPoint x="35" y="10" as="offset" />
          </mxGeometry>
        </mxCell>
        <mxCell id="5CNRIiuL0Ioi0CvN27zp-13" value="" style="shape=link;html=1;rounded=0;exitX=1;exitY=0.5;exitDx=0;exitDy=0;entryX=0;entryY=0.5;entryDx=0;entryDy=0;" parent="1" source="9a2zuiYX98f70HpiT969-40" target="9a2zuiYX98f70HpiT969-41" edge="1">
          <mxGeometry relative="1" as="geometry">
            <mxPoint x="1130" y="780" as="sourcePoint" />
            <mxPoint x="1290" y="780" as="targetPoint" />
          </mxGeometry>
        </mxCell>
        <mxCell id="5CNRIiuL0Ioi0CvN27zp-14" value="1" style="resizable=0;html=1;whiteSpace=wrap;align=right;verticalAlign=bottom;" parent="5CNRIiuL0Ioi0CvN27zp-13" connectable="0" vertex="1">
          <mxGeometry x="1" relative="1" as="geometry">
            <mxPoint x="-30" y="-6" as="offset" />
          </mxGeometry>
        </mxCell>
        <mxCell id="5CNRIiuL0Ioi0CvN27zp-17" value="" style="endArrow=none;html=1;rounded=0;exitX=0;exitY=0.5;exitDx=0;exitDy=0;entryX=1;entryY=0.5;entryDx=0;entryDy=0;" parent="1" source="9G3-QuPv8n-hs4sBgN2S-38" target="9a2zuiYX98f70HpiT969-41" edge="1">
          <mxGeometry relative="1" as="geometry">
            <mxPoint x="1700" y="940" as="sourcePoint" />
            <mxPoint x="1860" y="940" as="targetPoint" />
          </mxGeometry>
        </mxCell>
        <mxCell id="5CNRIiuL0Ioi0CvN27zp-18" value="N" style="resizable=0;html=1;whiteSpace=wrap;align=right;verticalAlign=bottom;" parent="5CNRIiuL0Ioi0CvN27zp-17" connectable="0" vertex="1">
          <mxGeometry x="1" relative="1" as="geometry">
            <mxPoint x="60" y="1" as="offset" />
          </mxGeometry>
        </mxCell>
        <mxCell id="5CNRIiuL0Ioi0CvN27zp-19" value="" style="endArrow=none;html=1;rounded=0;exitX=1;exitY=0.5;exitDx=0;exitDy=0;entryX=0;entryY=0.25;entryDx=0;entryDy=0;" parent="1" source="9G3-QuPv8n-hs4sBgN2S-38" target="u7G3lc30cp1mZhsRT5WW-39" edge="1">
          <mxGeometry relative="1" as="geometry">
            <mxPoint x="1850" y="1010" as="sourcePoint" />
            <mxPoint x="2010" y="1010" as="targetPoint" />
            <Array as="points" />
          </mxGeometry>
        </mxCell>
        <mxCell id="5CNRIiuL0Ioi0CvN27zp-20" value="N" style="resizable=0;html=1;whiteSpace=wrap;align=right;verticalAlign=bottom;" parent="5CNRIiuL0Ioi0CvN27zp-19" connectable="0" vertex="1">
          <mxGeometry x="1" relative="1" as="geometry">
            <mxPoint x="-15" y="-15" as="offset" />
          </mxGeometry>
        </mxCell>
        <mxCell id="5CNRIiuL0Ioi0CvN27zp-21" value="" style="endArrow=none;html=1;rounded=0;exitX=0;exitY=0.5;exitDx=0;exitDy=0;entryX=1;entryY=0.5;entryDx=0;entryDy=0;" parent="1" source="9G3-QuPv8n-hs4sBgN2S-56" target="9a2zuiYX98f70HpiT969-34" edge="1">
          <mxGeometry relative="1" as="geometry">
            <mxPoint x="1450" y="1060" as="sourcePoint" />
            <mxPoint x="1610" y="1060" as="targetPoint" />
          </mxGeometry>
        </mxCell>
        <mxCell id="5CNRIiuL0Ioi0CvN27zp-22" value="N" style="resizable=0;html=1;whiteSpace=wrap;align=right;verticalAlign=bottom;" parent="5CNRIiuL0Ioi0CvN27zp-21" connectable="0" vertex="1">
          <mxGeometry x="1" relative="1" as="geometry">
            <mxPoint x="50" y="-3" as="offset" />
          </mxGeometry>
        </mxCell>
        <mxCell id="5CNRIiuL0Ioi0CvN27zp-23" value="" style="endArrow=none;html=1;rounded=0;exitX=1;exitY=0.5;exitDx=0;exitDy=0;entryX=0;entryY=0.5;entryDx=0;entryDy=0;" parent="1" source="9G3-QuPv8n-hs4sBgN2S-56" target="u7G3lc30cp1mZhsRT5WW-39" edge="1">
          <mxGeometry relative="1" as="geometry">
            <mxPoint x="1580" y="1080" as="sourcePoint" />
            <mxPoint x="1910" y="1080" as="targetPoint" />
          </mxGeometry>
        </mxCell>
        <mxCell id="5CNRIiuL0Ioi0CvN27zp-24" value="N" style="resizable=0;html=1;whiteSpace=wrap;align=right;verticalAlign=bottom;" parent="5CNRIiuL0Ioi0CvN27zp-23" connectable="0" vertex="1">
          <mxGeometry x="1" relative="1" as="geometry">
            <mxPoint x="-35" y="-16" as="offset" />
          </mxGeometry>
        </mxCell>
        <mxCell id="5CNRIiuL0Ioi0CvN27zp-25" value="" style="shape=link;html=1;rounded=0;exitX=0;exitY=0.5;exitDx=0;exitDy=0;entryX=1;entryY=0.5;entryDx=0;entryDy=0;" parent="1" source="9G3-QuPv8n-hs4sBgN2S-57" target="9a2zuiYX98f70HpiT969-26" edge="1">
          <mxGeometry relative="1" as="geometry">
            <mxPoint x="1460" y="1250" as="sourcePoint" />
            <mxPoint x="1620" y="1250" as="targetPoint" />
          </mxGeometry>
        </mxCell>
        <mxCell id="5CNRIiuL0Ioi0CvN27zp-26" value="1" style="resizable=0;html=1;whiteSpace=wrap;align=right;verticalAlign=bottom;" parent="5CNRIiuL0Ioi0CvN27zp-25" connectable="0" vertex="1">
          <mxGeometry x="1" relative="1" as="geometry">
            <mxPoint x="25" as="offset" />
          </mxGeometry>
        </mxCell>
        <mxCell id="5CNRIiuL0Ioi0CvN27zp-29" value="" style="endArrow=none;html=1;rounded=0;exitX=1;exitY=0.5;exitDx=0;exitDy=0;entryX=0;entryY=0.75;entryDx=0;entryDy=0;" parent="1" source="9G3-QuPv8n-hs4sBgN2S-57" target="u7G3lc30cp1mZhsRT5WW-39" edge="1">
          <mxGeometry relative="1" as="geometry">
            <mxPoint x="1610" y="1210" as="sourcePoint" />
            <mxPoint x="1770" y="1210" as="targetPoint" />
          </mxGeometry>
        </mxCell>
        <mxCell id="5CNRIiuL0Ioi0CvN27zp-30" value="1" style="resizable=0;html=1;whiteSpace=wrap;align=right;verticalAlign=bottom;" parent="5CNRIiuL0Ioi0CvN27zp-29" connectable="0" vertex="1">
          <mxGeometry x="1" relative="1" as="geometry">
            <mxPoint x="-45" y="15" as="offset" />
          </mxGeometry>
        </mxCell>
        <mxCell id="qn2zWFcr3kJ3zpd5dCrA-1" value="&lt;b&gt;Add&lt;/b&gt;" style="shape=rhombus;perimeter=rhombusPerimeter;whiteSpace=wrap;html=1;align=center;" parent="1" vertex="1">
          <mxGeometry x="2280" y="648" width="120" height="60" as="geometry" />
        </mxCell>
        <mxCell id="1IbuBoIK-4s3fGUgsc5t-1" value="&lt;b&gt;Delete&lt;/b&gt;" style="shape=rhombus;perimeter=rhombusPerimeter;whiteSpace=wrap;html=1;align=center;" parent="1" vertex="1">
          <mxGeometry x="2395.68" y="725" width="120" height="60" as="geometry" />
        </mxCell>
        <mxCell id="1IbuBoIK-4s3fGUgsc5t-6" value="" style="shape=link;html=1;rounded=0;entryX=0.915;entryY=-0.017;entryDx=0;entryDy=0;exitX=0;exitY=0.5;exitDx=0;exitDy=0;entryPerimeter=0;" parent="1" source="qn2zWFcr3kJ3zpd5dCrA-1" target="u7G3lc30cp1mZhsRT5WW-39" edge="1">
          <mxGeometry relative="1" as="geometry">
            <mxPoint x="2255" y="913" as="sourcePoint" />
            <mxPoint x="1910" y="1079" as="targetPoint" />
          </mxGeometry>
        </mxCell>
        <mxCell id="1IbuBoIK-4s3fGUgsc5t-7" value="N" style="resizable=0;html=1;whiteSpace=wrap;align=right;verticalAlign=bottom;" parent="1IbuBoIK-4s3fGUgsc5t-6" connectable="0" vertex="1">
          <mxGeometry x="1" relative="1" as="geometry">
            <mxPoint x="20" y="-55" as="offset" />
          </mxGeometry>
        </mxCell>
        <mxCell id="1IbuBoIK-4s3fGUgsc5t-8" value="" style="shape=link;html=1;rounded=0;entryX=1;entryY=0;entryDx=0;entryDy=0;exitX=0;exitY=0.5;exitDx=0;exitDy=0;" parent="1" source="1IbuBoIK-4s3fGUgsc5t-1" target="u7G3lc30cp1mZhsRT5WW-39" edge="1">
          <mxGeometry relative="1" as="geometry">
            <mxPoint x="2440" y="1010" as="sourcePoint" />
            <mxPoint x="2095" y="1176" as="targetPoint" />
          </mxGeometry>
        </mxCell>
        <mxCell id="1IbuBoIK-4s3fGUgsc5t-9" value="N" style="resizable=0;html=1;whiteSpace=wrap;align=right;verticalAlign=bottom;" parent="1IbuBoIK-4s3fGUgsc5t-8" connectable="0" vertex="1">
          <mxGeometry x="1" relative="1" as="geometry">
            <mxPoint x="35" y="-46" as="offset" />
          </mxGeometry>
        </mxCell>
        <mxCell id="eWZF2nOKb5M1zI3xPDAx-1" value="&lt;h3&gt;&lt;font face=&quot;Comic Sans MS&quot;&gt;&lt;span style=&quot;font-size: 18px;&quot;&gt;quantity&lt;/span&gt;&lt;/font&gt;&lt;/h3&gt;" style="ellipse;whiteSpace=wrap;html=1;" parent="1" vertex="1">
          <mxGeometry x="2270" y="530" width="140" height="60" as="geometry" />
        </mxCell>
        <mxCell id="eWZF2nOKb5M1zI3xPDAx-2" value="&lt;h3&gt;&lt;font face=&quot;Comic Sans MS&quot;&gt;&lt;span style=&quot;font-size: 18px;&quot;&gt;quantity&lt;/span&gt;&lt;/font&gt;&lt;/h3&gt;" style="ellipse;whiteSpace=wrap;html=1;" parent="1" vertex="1">
          <mxGeometry x="2385.68" y="846" width="140" height="60" as="geometry" />
        </mxCell>
        <mxCell id="eWZF2nOKb5M1zI3xPDAx-4" value="" style="endArrow=none;html=1;rounded=0;entryX=0.5;entryY=0;entryDx=0;entryDy=0;exitX=0.5;exitY=1;exitDx=0;exitDy=0;" parent="1" source="1IbuBoIK-4s3fGUgsc5t-1" target="eWZF2nOKb5M1zI3xPDAx-2" edge="1">
          <mxGeometry width="50" height="50" relative="1" as="geometry">
            <mxPoint x="2550.68" y="791" as="sourcePoint" />
            <mxPoint x="2627.68" y="691" as="targetPoint" />
          </mxGeometry>
        </mxCell>
        <mxCell id="eWZF2nOKb5M1zI3xPDAx-5" value="" style="endArrow=none;html=1;rounded=0;entryX=0.5;entryY=0;entryDx=0;entryDy=0;exitX=0.5;exitY=1;exitDx=0;exitDy=0;" parent="1" source="eWZF2nOKb5M1zI3xPDAx-1" target="qn2zWFcr3kJ3zpd5dCrA-1" edge="1">
          <mxGeometry width="50" height="50" relative="1" as="geometry">
            <mxPoint x="2160" y="591" as="sourcePoint" />
            <mxPoint x="2280" y="648" as="targetPoint" />
          </mxGeometry>
        </mxCell>
        <mxCell id="C1sb4xI8K1LSrNN0Yo87-1" value="" style="shape=link;html=1;rounded=0;exitX=1;exitY=0.5;exitDx=0;exitDy=0;entryX=0;entryY=1;entryDx=0;entryDy=0;" parent="1" source="qn2zWFcr3kJ3zpd5dCrA-1" target="u7G3lc30cp1mZhsRT5WW-19" edge="1">
          <mxGeometry relative="1" as="geometry">
            <mxPoint x="2500" y="580" as="sourcePoint" />
            <mxPoint x="2660" y="580" as="targetPoint" />
          </mxGeometry>
        </mxCell>
        <mxCell id="C1sb4xI8K1LSrNN0Yo87-2" value="1" style="resizable=0;html=1;whiteSpace=wrap;align=right;verticalAlign=bottom;" parent="C1sb4xI8K1LSrNN0Yo87-1" connectable="0" vertex="1">
          <mxGeometry x="1" relative="1" as="geometry">
            <mxPoint x="-25" y="20" as="offset" />
          </mxGeometry>
        </mxCell>
        <mxCell id="C1sb4xI8K1LSrNN0Yo87-4" value="" style="shape=link;html=1;rounded=0;exitX=1;exitY=0.5;exitDx=0;exitDy=0;entryX=0.75;entryY=1;entryDx=0;entryDy=0;" parent="1" source="1IbuBoIK-4s3fGUgsc5t-1" target="u7G3lc30cp1mZhsRT5WW-19" edge="1">
          <mxGeometry relative="1" as="geometry">
            <mxPoint x="2550" y="698" as="sourcePoint" />
            <mxPoint x="2705" y="540" as="targetPoint" />
          </mxGeometry>
        </mxCell>
        <mxCell id="C1sb4xI8K1LSrNN0Yo87-5" value="1" style="resizable=0;html=1;whiteSpace=wrap;align=right;verticalAlign=bottom;" parent="C1sb4xI8K1LSrNN0Yo87-4" connectable="0" vertex="1">
          <mxGeometry x="1" relative="1" as="geometry">
            <mxPoint x="-30" y="40" as="offset" />
          </mxGeometry>
        </mxCell>
      </root>
    </mxGraphModel>
  </diagram>
  <diagram id="gkafdRwdf74QI9HEhutj" name="Schema">
    <mxGraphModel dx="5000" dy="2200" grid="1" gridSize="10" guides="1" tooltips="1" connect="1" arrows="1" fold="1" page="1" pageScale="1" pageWidth="2339" pageHeight="3300" math="0" shadow="0">
      <root>
        <mxCell id="0" />
        <mxCell id="1" parent="0" />
        <mxCell id="3fkn-KtKfaaWNmX91jq2-17" value="&lt;h3&gt;&lt;font style=&quot;font-size: 18px;&quot; face=&quot;Comic Sans MS&quot;&gt;User&lt;/font&gt;&lt;/h3&gt;" style="text;html=1;align=center;verticalAlign=middle;resizable=0;points=[];autosize=1;strokeColor=none;fillColor=none;" parent="1" vertex="1">
          <mxGeometry x="825.0000000000001" y="340" width="60" height="60" as="geometry" />
        </mxCell>
        <mxCell id="k274HPycMQfgmOG67fI8-18" value="" style="shape=table;startSize=0;container=1;collapsible=0;childLayout=tableLayout;fontSize=16;" parent="1" vertex="1">
          <mxGeometry x="825.0000000000001" y="400" width="511" height="60" as="geometry" />
        </mxCell>
        <mxCell id="k274HPycMQfgmOG67fI8-19" value="" style="shape=tableRow;horizontal=0;startSize=0;swimlaneHead=0;swimlaneBody=0;strokeColor=inherit;top=0;left=0;bottom=0;right=0;collapsible=0;dropTarget=0;fillColor=none;points=[[0,0.5],[1,0.5]];portConstraint=eastwest;fontSize=16;" parent="k274HPycMQfgmOG67fI8-18" vertex="1">
          <mxGeometry width="511" height="60" as="geometry" />
        </mxCell>
        <mxCell id="k274HPycMQfgmOG67fI8-20" value="&lt;h3 style=&quot;text-wrap-mode: nowrap;&quot;&gt;&lt;font face=&quot;Comic Sans MS&quot;&gt;&lt;u&gt;User_id&lt;/u&gt;&lt;/font&gt;&lt;/h3&gt;" style="shape=partialRectangle;html=1;whiteSpace=wrap;connectable=0;strokeColor=inherit;overflow=hidden;fillColor=none;top=0;left=0;bottom=0;right=0;pointerEvents=1;fontSize=16;" parent="k274HPycMQfgmOG67fI8-19" vertex="1">
          <mxGeometry width="100" height="60" as="geometry">
            <mxRectangle width="100" height="60" as="alternateBounds" />
          </mxGeometry>
        </mxCell>
        <mxCell id="k274HPycMQfgmOG67fI8-21" value="&lt;h3 style=&quot;text-wrap-mode: nowrap;&quot;&gt;&lt;font face=&quot;Comic Sans MS&quot;&gt;username&lt;/font&gt;&lt;/h3&gt;" style="shape=partialRectangle;html=1;whiteSpace=wrap;connectable=0;strokeColor=inherit;overflow=hidden;fillColor=none;top=0;left=0;bottom=0;right=0;pointerEvents=1;fontSize=16;" parent="k274HPycMQfgmOG67fI8-19" vertex="1">
          <mxGeometry x="100" width="100" height="60" as="geometry">
            <mxRectangle width="100" height="60" as="alternateBounds" />
          </mxGeometry>
        </mxCell>
        <mxCell id="k274HPycMQfgmOG67fI8-22" value="&lt;h3 style=&quot;text-wrap-mode: nowrap;&quot;&gt;&lt;font face=&quot;Comic Sans MS&quot;&gt;email&lt;/font&gt;&lt;/h3&gt;" style="shape=partialRectangle;html=1;whiteSpace=wrap;connectable=0;strokeColor=inherit;overflow=hidden;fillColor=none;top=0;left=0;bottom=0;right=0;pointerEvents=1;fontSize=16;" parent="k274HPycMQfgmOG67fI8-19" vertex="1">
          <mxGeometry x="200" width="55" height="60" as="geometry">
            <mxRectangle width="55" height="60" as="alternateBounds" />
          </mxGeometry>
        </mxCell>
        <mxCell id="k274HPycMQfgmOG67fI8-31" value="&lt;h3 style=&quot;text-wrap-mode: nowrap;&quot;&gt;&lt;font face=&quot;Comic Sans MS&quot;&gt;password&lt;/font&gt;&lt;/h3&gt;" style="shape=partialRectangle;html=1;whiteSpace=wrap;connectable=0;strokeColor=inherit;overflow=hidden;fillColor=none;top=0;left=0;bottom=0;right=0;pointerEvents=1;fontSize=16;" parent="k274HPycMQfgmOG67fI8-19" vertex="1">
          <mxGeometry x="255" width="102" height="60" as="geometry">
            <mxRectangle width="102" height="60" as="alternateBounds" />
          </mxGeometry>
        </mxCell>
        <mxCell id="k274HPycMQfgmOG67fI8-32" value="&lt;h3 style=&quot;text-wrap-mode: nowrap;&quot;&gt;&lt;font face=&quot;Comic Sans MS&quot;&gt;phone&lt;/font&gt;&lt;/h3&gt;" style="shape=partialRectangle;html=1;whiteSpace=wrap;connectable=0;strokeColor=inherit;overflow=hidden;fillColor=none;top=0;left=0;bottom=0;right=0;pointerEvents=1;fontSize=16;" parent="k274HPycMQfgmOG67fI8-19" vertex="1">
          <mxGeometry x="357" width="68" height="60" as="geometry">
            <mxRectangle width="68" height="60" as="alternateBounds" />
          </mxGeometry>
        </mxCell>
        <mxCell id="k274HPycMQfgmOG67fI8-33" value="&lt;h3 style=&quot;text-wrap-mode: nowrap;&quot;&gt;&lt;font face=&quot;Comic Sans MS&quot;&gt;address&lt;/font&gt;&lt;/h3&gt;" style="shape=partialRectangle;html=1;whiteSpace=wrap;connectable=0;strokeColor=inherit;overflow=hidden;fillColor=none;top=0;left=0;bottom=0;right=0;pointerEvents=1;fontSize=16;" parent="k274HPycMQfgmOG67fI8-19" vertex="1">
          <mxGeometry x="425" width="86" height="60" as="geometry">
            <mxRectangle width="86" height="60" as="alternateBounds" />
          </mxGeometry>
        </mxCell>
        <mxCell id="2mUnTW2dUmDxQS6wtgPA-7" value="&lt;h3&gt;&lt;font style=&quot;font-size: 18px;&quot; face=&quot;Comic Sans MS&quot;&gt;Book&lt;/font&gt;&lt;/h3&gt;" style="text;html=1;align=center;verticalAlign=middle;resizable=0;points=[];autosize=1;strokeColor=none;fillColor=none;" parent="1" vertex="1">
          <mxGeometry x="827.0000000000001" y="750" width="60" height="60" as="geometry" />
        </mxCell>
        <mxCell id="2mUnTW2dUmDxQS6wtgPA-8" value="" style="shape=table;startSize=0;container=1;collapsible=0;childLayout=tableLayout;fontSize=16;" parent="1" vertex="1">
          <mxGeometry x="825.0000000000001" y="810" width="1136" height="60" as="geometry" />
        </mxCell>
        <mxCell id="2mUnTW2dUmDxQS6wtgPA-9" value="" style="shape=tableRow;horizontal=0;startSize=0;swimlaneHead=0;swimlaneBody=0;strokeColor=inherit;top=0;left=0;bottom=0;right=0;collapsible=0;dropTarget=0;fillColor=none;points=[[0,0.5],[1,0.5]];portConstraint=eastwest;fontSize=16;" parent="2mUnTW2dUmDxQS6wtgPA-8" vertex="1">
          <mxGeometry width="1136" height="60" as="geometry" />
        </mxCell>
        <mxCell id="2mUnTW2dUmDxQS6wtgPA-10" value="&lt;h3&gt;&lt;font style=&quot;font-size: 18px;&quot; face=&quot;Comic Sans MS&quot;&gt;&lt;u&gt;Book-id&lt;/u&gt;&lt;/font&gt;&lt;/h3&gt;" style="shape=partialRectangle;html=1;whiteSpace=wrap;connectable=0;strokeColor=inherit;overflow=hidden;fillColor=none;top=0;left=0;bottom=0;right=0;pointerEvents=1;fontSize=16;" parent="2mUnTW2dUmDxQS6wtgPA-9" vertex="1">
          <mxGeometry width="121" height="60" as="geometry">
            <mxRectangle width="121" height="60" as="alternateBounds" />
          </mxGeometry>
        </mxCell>
        <mxCell id="2mUnTW2dUmDxQS6wtgPA-11" value="&lt;h3&gt;&lt;font style=&quot;font-size: 18px;&quot; face=&quot;Comic Sans MS&quot;&gt;Price&lt;/font&gt;&lt;/h3&gt;" style="shape=partialRectangle;html=1;whiteSpace=wrap;connectable=0;strokeColor=inherit;overflow=hidden;fillColor=none;top=0;left=0;bottom=0;right=0;pointerEvents=1;fontSize=16;" parent="2mUnTW2dUmDxQS6wtgPA-9" vertex="1">
          <mxGeometry x="121" width="94" height="60" as="geometry">
            <mxRectangle width="94" height="60" as="alternateBounds" />
          </mxGeometry>
        </mxCell>
        <mxCell id="2mUnTW2dUmDxQS6wtgPA-12" value="&lt;h3 style=&quot;text-wrap-mode: nowrap;&quot;&gt;&lt;font style=&quot;font-size: 18px;&quot; face=&quot;Comic Sans MS&quot;&gt;rating&lt;/font&gt;&lt;/h3&gt;" style="shape=partialRectangle;html=1;whiteSpace=wrap;connectable=0;strokeColor=inherit;overflow=hidden;fillColor=none;top=0;left=0;bottom=0;right=0;pointerEvents=1;fontSize=16;" parent="2mUnTW2dUmDxQS6wtgPA-9" vertex="1">
          <mxGeometry x="215" width="106" height="60" as="geometry">
            <mxRectangle width="106" height="60" as="alternateBounds" />
          </mxGeometry>
        </mxCell>
        <mxCell id="2mUnTW2dUmDxQS6wtgPA-13" value="&lt;h3 style=&quot;text-wrap-mode: nowrap;&quot;&gt;&lt;font face=&quot;Comic Sans MS&quot;&gt;title&lt;/font&gt;&lt;/h3&gt;" style="shape=partialRectangle;html=1;whiteSpace=wrap;connectable=0;strokeColor=inherit;overflow=hidden;fillColor=none;top=0;left=0;bottom=0;right=0;pointerEvents=1;fontSize=16;" parent="2mUnTW2dUmDxQS6wtgPA-9" vertex="1">
          <mxGeometry x="321" width="80" height="60" as="geometry">
            <mxRectangle width="80" height="60" as="alternateBounds" />
          </mxGeometry>
        </mxCell>
        <mxCell id="2mUnTW2dUmDxQS6wtgPA-14" value="&lt;h3 style=&quot;text-wrap-mode: nowrap;&quot;&gt;&lt;font face=&quot;Comic Sans MS&quot;&gt;page_count&lt;/font&gt;&lt;/h3&gt;" style="shape=partialRectangle;html=1;whiteSpace=wrap;connectable=0;strokeColor=inherit;overflow=hidden;fillColor=none;top=0;left=0;bottom=0;right=0;pointerEvents=1;fontSize=16;" parent="2mUnTW2dUmDxQS6wtgPA-9" vertex="1">
          <mxGeometry x="401" width="148" height="60" as="geometry">
            <mxRectangle width="148" height="60" as="alternateBounds" />
          </mxGeometry>
        </mxCell>
        <mxCell id="2mUnTW2dUmDxQS6wtgPA-15" value="&lt;h3 style=&quot;text-wrap-mode: nowrap;&quot;&gt;&lt;font face=&quot;Comic Sans MS&quot;&gt;describtion&lt;/font&gt;&lt;/h3&gt;" style="shape=partialRectangle;html=1;whiteSpace=wrap;connectable=0;strokeColor=inherit;overflow=hidden;fillColor=none;top=0;left=0;bottom=0;right=0;pointerEvents=1;fontSize=16;" parent="2mUnTW2dUmDxQS6wtgPA-9" vertex="1">
          <mxGeometry x="549" width="134" height="60" as="geometry">
            <mxRectangle width="134" height="60" as="alternateBounds" />
          </mxGeometry>
        </mxCell>
        <mxCell id="2mUnTW2dUmDxQS6wtgPA-16" value="&lt;h3 style=&quot;text-wrap-mode: nowrap;&quot;&gt;&lt;font style=&quot;font-size: 18px;&quot; face=&quot;Comic Sans MS&quot;&gt;Language&lt;/font&gt;&lt;/h3&gt;" style="shape=partialRectangle;html=1;whiteSpace=wrap;connectable=0;strokeColor=inherit;overflow=hidden;fillColor=none;top=0;left=0;bottom=0;right=0;pointerEvents=1;fontSize=16;" parent="2mUnTW2dUmDxQS6wtgPA-9" vertex="1">
          <mxGeometry x="683" width="114" height="60" as="geometry">
            <mxRectangle width="114" height="60" as="alternateBounds" />
          </mxGeometry>
        </mxCell>
        <mxCell id="5kJfIicfpMfOQa_-f72T-1" value="&lt;h3 style=&quot;text-wrap-mode: nowrap;&quot;&gt;&lt;font style=&quot;font-size: 18px;&quot; face=&quot;Comic Sans MS&quot;&gt;date&lt;/font&gt;&lt;/h3&gt;" style="shape=partialRectangle;html=1;whiteSpace=wrap;connectable=0;strokeColor=inherit;overflow=hidden;fillColor=none;top=0;left=0;bottom=0;right=0;pointerEvents=1;fontSize=16;" parent="2mUnTW2dUmDxQS6wtgPA-9" vertex="1">
          <mxGeometry x="797" width="113" height="60" as="geometry">
            <mxRectangle width="113" height="60" as="alternateBounds" />
          </mxGeometry>
        </mxCell>
        <mxCell id="JHbyRRnrX0lieQcqxh4g-1" value="&lt;h3&gt;&lt;font style=&quot;font-size: 18px;&quot; face=&quot;Comic Sans MS&quot;&gt;&lt;u&gt;Admin_id&lt;/u&gt;&lt;/font&gt;&lt;/h3&gt;" style="shape=partialRectangle;html=1;whiteSpace=wrap;connectable=0;strokeColor=inherit;overflow=hidden;fillColor=none;top=0;left=0;bottom=0;right=0;pointerEvents=1;fontSize=16;" parent="2mUnTW2dUmDxQS6wtgPA-9" vertex="1">
          <mxGeometry x="910" width="113" height="60" as="geometry">
            <mxRectangle width="113" height="60" as="alternateBounds" />
          </mxGeometry>
        </mxCell>
        <mxCell id="d-TsvnoMF3pkyA1MCS37-1" value="&lt;h3&gt;&lt;font face=&quot;Comic Sans MS&quot;&gt;&lt;span style=&quot;font-size: 18px;&quot;&gt;quantity&lt;/span&gt;&lt;/font&gt;&lt;/h3&gt;" style="shape=partialRectangle;html=1;whiteSpace=wrap;connectable=0;strokeColor=inherit;overflow=hidden;fillColor=none;top=0;left=0;bottom=0;right=0;pointerEvents=1;fontSize=16;" parent="2mUnTW2dUmDxQS6wtgPA-9" vertex="1">
          <mxGeometry x="1023" width="113" height="60" as="geometry">
            <mxRectangle width="113" height="60" as="alternateBounds" />
          </mxGeometry>
        </mxCell>
        <mxCell id="5kJfIicfpMfOQa_-f72T-13" value="&lt;h3 style=&quot;text-wrap-mode: wrap;&quot;&gt;&lt;font style=&quot;font-size: 18px;&quot; face=&quot;Comic Sans MS&quot;&gt;&lt;i&gt;Category&lt;/i&gt;&lt;/font&gt;&lt;/h3&gt;" style="text;html=1;align=center;verticalAlign=middle;resizable=0;points=[];autosize=1;strokeColor=none;fillColor=none;" parent="1" vertex="1">
          <mxGeometry x="825.0000000000001" y="1140" width="100" height="60" as="geometry" />
        </mxCell>
        <mxCell id="5kJfIicfpMfOQa_-f72T-14" value="" style="shape=table;startSize=0;container=1;collapsible=0;childLayout=tableLayout;fontSize=16;" parent="1" vertex="1">
          <mxGeometry x="825.0000000000001" y="1200" width="198" height="60" as="geometry" />
        </mxCell>
        <mxCell id="5kJfIicfpMfOQa_-f72T-15" value="" style="shape=tableRow;horizontal=0;startSize=0;swimlaneHead=0;swimlaneBody=0;strokeColor=inherit;top=0;left=0;bottom=0;right=0;collapsible=0;dropTarget=0;fillColor=none;points=[[0,0.5],[1,0.5]];portConstraint=eastwest;fontSize=16;" parent="5kJfIicfpMfOQa_-f72T-14" vertex="1">
          <mxGeometry width="198" height="60" as="geometry" />
        </mxCell>
        <mxCell id="5kJfIicfpMfOQa_-f72T-16" value="&lt;h3&gt;&lt;font style=&quot;font-size: 18px;&quot; face=&quot;Comic Sans MS&quot;&gt;&lt;u&gt;Cat_id&lt;/u&gt;&lt;/font&gt;&lt;/h3&gt;" style="shape=partialRectangle;html=1;whiteSpace=wrap;connectable=0;strokeColor=inherit;overflow=hidden;fillColor=none;top=0;left=0;bottom=0;right=0;pointerEvents=1;fontSize=16;" parent="5kJfIicfpMfOQa_-f72T-15" vertex="1">
          <mxGeometry width="100" height="60" as="geometry">
            <mxRectangle width="100" height="60" as="alternateBounds" />
          </mxGeometry>
        </mxCell>
        <mxCell id="5kJfIicfpMfOQa_-f72T-17" value="&lt;h3&gt;&lt;font style=&quot;font-size: 18px;&quot; face=&quot;Comic Sans MS&quot;&gt;Cat_name&lt;/font&gt;&lt;/h3&gt;" style="shape=partialRectangle;html=1;whiteSpace=wrap;connectable=0;strokeColor=inherit;overflow=hidden;fillColor=none;top=0;left=0;bottom=0;right=0;pointerEvents=1;fontSize=16;" parent="5kJfIicfpMfOQa_-f72T-15" vertex="1">
          <mxGeometry x="100" width="98" height="60" as="geometry">
            <mxRectangle width="98" height="60" as="alternateBounds" />
          </mxGeometry>
        </mxCell>
        <mxCell id="Jm13uPxr4EKzJRPJZaWk-2" value="" style="shape=table;startSize=0;container=1;collapsible=0;childLayout=tableLayout;fontSize=16;" parent="1" vertex="1">
          <mxGeometry x="825.0000000000001" y="620" width="950" height="60" as="geometry" />
        </mxCell>
        <mxCell id="Jm13uPxr4EKzJRPJZaWk-3" value="" style="shape=tableRow;horizontal=0;startSize=0;swimlaneHead=0;swimlaneBody=0;strokeColor=inherit;top=0;left=0;bottom=0;right=0;collapsible=0;dropTarget=0;fillColor=none;points=[[0,0.5],[1,0.5]];portConstraint=eastwest;fontSize=16;" parent="Jm13uPxr4EKzJRPJZaWk-2" vertex="1">
          <mxGeometry width="950" height="60" as="geometry" />
        </mxCell>
        <mxCell id="Jm13uPxr4EKzJRPJZaWk-4" value="&lt;h3&gt;&lt;font style=&quot;font-size: 18px;&quot; face=&quot;Comic Sans MS&quot;&gt;&lt;u&gt;Order_id&lt;/u&gt;&lt;/font&gt;&lt;/h3&gt;" style="shape=partialRectangle;html=1;whiteSpace=wrap;connectable=0;strokeColor=inherit;overflow=hidden;fillColor=none;top=0;left=0;bottom=0;right=0;pointerEvents=1;fontSize=16;" parent="Jm13uPxr4EKzJRPJZaWk-3" vertex="1">
          <mxGeometry width="100" height="60" as="geometry">
            <mxRectangle width="100" height="60" as="alternateBounds" />
          </mxGeometry>
        </mxCell>
        <mxCell id="Jm13uPxr4EKzJRPJZaWk-5" value="&lt;h3&gt;&lt;font style=&quot;font-size: 18px;&quot; face=&quot;Comic Sans MS&quot;&gt;total_amount&lt;/font&gt;&lt;/h3&gt;" style="shape=partialRectangle;html=1;whiteSpace=wrap;connectable=0;strokeColor=inherit;overflow=hidden;fillColor=none;top=0;left=0;bottom=0;right=0;pointerEvents=1;fontSize=16;" parent="Jm13uPxr4EKzJRPJZaWk-3" vertex="1">
          <mxGeometry x="100" width="130" height="60" as="geometry">
            <mxRectangle width="130" height="60" as="alternateBounds" />
          </mxGeometry>
        </mxCell>
        <mxCell id="Jm13uPxr4EKzJRPJZaWk-6" value="&lt;h3&gt;&lt;font style=&quot;font-size: 18px;&quot; face=&quot;Comic Sans MS&quot;&gt;shipping_address&lt;/font&gt;&lt;/h3&gt;" style="shape=partialRectangle;html=1;whiteSpace=wrap;connectable=0;strokeColor=inherit;overflow=hidden;fillColor=none;top=0;left=0;bottom=0;right=0;pointerEvents=1;fontSize=16;" parent="Jm13uPxr4EKzJRPJZaWk-3" vertex="1">
          <mxGeometry x="230" width="160" height="60" as="geometry">
            <mxRectangle width="160" height="60" as="alternateBounds" />
          </mxGeometry>
        </mxCell>
        <mxCell id="Jm13uPxr4EKzJRPJZaWk-7" value="&lt;h3&gt;&lt;font style=&quot;font-size: 18px;&quot; face=&quot;Comic Sans MS&quot;&gt;tracking_number&lt;/font&gt;&lt;/h3&gt;" style="shape=partialRectangle;html=1;whiteSpace=wrap;connectable=0;strokeColor=inherit;overflow=hidden;fillColor=none;top=0;left=0;bottom=0;right=0;pointerEvents=1;fontSize=16;" parent="Jm13uPxr4EKzJRPJZaWk-3" vertex="1">
          <mxGeometry x="390" width="150" height="60" as="geometry">
            <mxRectangle width="150" height="60" as="alternateBounds" />
          </mxGeometry>
        </mxCell>
        <mxCell id="Jm13uPxr4EKzJRPJZaWk-8" value="&lt;h3&gt;&lt;font style=&quot;font-size: 18px;&quot; face=&quot;Comic Sans MS&quot;&gt;order_status&lt;/font&gt;&lt;/h3&gt;" style="shape=partialRectangle;html=1;whiteSpace=wrap;connectable=0;strokeColor=inherit;overflow=hidden;fillColor=none;top=0;left=0;bottom=0;right=0;pointerEvents=1;fontSize=16;" parent="Jm13uPxr4EKzJRPJZaWk-3" vertex="1">
          <mxGeometry x="540" width="130" height="60" as="geometry">
            <mxRectangle width="130" height="60" as="alternateBounds" />
          </mxGeometry>
        </mxCell>
        <mxCell id="Jm13uPxr4EKzJRPJZaWk-9" value="&lt;h3&gt;&lt;font face=&quot;Comic Sans MS&quot;&gt;&lt;span style=&quot;font-size: 18px;&quot;&gt;payment_status&lt;/span&gt;&lt;/font&gt;&lt;/h3&gt;" style="shape=partialRectangle;html=1;whiteSpace=wrap;connectable=0;strokeColor=inherit;overflow=hidden;fillColor=none;top=0;left=0;bottom=0;right=0;pointerEvents=1;fontSize=16;" parent="Jm13uPxr4EKzJRPJZaWk-3" vertex="1">
          <mxGeometry x="670" width="150" height="60" as="geometry">
            <mxRectangle width="150" height="60" as="alternateBounds" />
          </mxGeometry>
        </mxCell>
        <mxCell id="Jm13uPxr4EKzJRPJZaWk-10" value="&lt;h3&gt;&lt;font style=&quot;font-size: 18px;&quot; face=&quot;Comic Sans MS&quot;&gt;order_date&lt;/font&gt;&lt;/h3&gt;" style="shape=partialRectangle;html=1;whiteSpace=wrap;connectable=0;strokeColor=inherit;overflow=hidden;fillColor=none;top=0;left=0;bottom=0;right=0;pointerEvents=1;fontSize=16;" parent="Jm13uPxr4EKzJRPJZaWk-3" vertex="1">
          <mxGeometry x="820" width="130" height="60" as="geometry">
            <mxRectangle width="130" height="60" as="alternateBounds" />
          </mxGeometry>
        </mxCell>
        <mxCell id="XzveBDgiHqrsF6B7Dpj6-1" value="&lt;h3 style=&quot;text-wrap-mode: wrap;&quot;&gt;&lt;font style=&quot;font-size: 18px;&quot; face=&quot;Comic Sans MS&quot;&gt;&lt;i&gt;Publisher&lt;/i&gt;&lt;/font&gt;&lt;/h3&gt;" style="text;html=1;align=center;verticalAlign=middle;resizable=0;points=[];autosize=1;strokeColor=none;fillColor=none;" parent="1" vertex="1">
          <mxGeometry x="825.0000000000001" y="1310" width="100" height="60" as="geometry" />
        </mxCell>
        <mxCell id="XzveBDgiHqrsF6B7Dpj6-2" value="" style="shape=table;startSize=0;container=1;collapsible=0;childLayout=tableLayout;fontSize=16;" parent="1" vertex="1">
          <mxGeometry x="825.0000000000001" y="1370" width="260" height="60" as="geometry" />
        </mxCell>
        <mxCell id="XzveBDgiHqrsF6B7Dpj6-3" value="" style="shape=tableRow;horizontal=0;startSize=0;swimlaneHead=0;swimlaneBody=0;strokeColor=inherit;top=0;left=0;bottom=0;right=0;collapsible=0;dropTarget=0;fillColor=none;points=[[0,0.5],[1,0.5]];portConstraint=eastwest;fontSize=16;" parent="XzveBDgiHqrsF6B7Dpj6-2" vertex="1">
          <mxGeometry width="260" height="60" as="geometry" />
        </mxCell>
        <mxCell id="XzveBDgiHqrsF6B7Dpj6-4" value="&lt;h3&gt;&lt;font style=&quot;font-size: 18px;&quot; face=&quot;Comic Sans MS&quot;&gt;Publisher_name&lt;/font&gt;&lt;/h3&gt;" style="shape=partialRectangle;html=1;whiteSpace=wrap;connectable=0;strokeColor=inherit;overflow=hidden;fillColor=none;top=0;left=0;bottom=0;right=0;pointerEvents=1;fontSize=16;" parent="XzveBDgiHqrsF6B7Dpj6-3" vertex="1">
          <mxGeometry width="160" height="60" as="geometry">
            <mxRectangle width="160" height="60" as="alternateBounds" />
          </mxGeometry>
        </mxCell>
        <mxCell id="XzveBDgiHqrsF6B7Dpj6-5" value="&lt;h3&gt;&lt;font face=&quot;Comic Sans MS&quot;&gt;&lt;span style=&quot;font-size: 18px;&quot;&gt;email&lt;/span&gt;&lt;/font&gt;&lt;/h3&gt;" style="shape=partialRectangle;html=1;whiteSpace=wrap;connectable=0;strokeColor=inherit;overflow=hidden;fillColor=none;top=0;left=0;bottom=0;right=0;pointerEvents=1;fontSize=16;" parent="XzveBDgiHqrsF6B7Dpj6-3" vertex="1">
          <mxGeometry x="160" width="100" height="60" as="geometry">
            <mxRectangle width="100" height="60" as="alternateBounds" />
          </mxGeometry>
        </mxCell>
        <mxCell id="KBDAj_kLETosjQnfp7m0-1" value="&lt;h3 style=&quot;text-wrap-mode: wrap;&quot;&gt;&lt;font style=&quot;font-size: 18px;&quot; face=&quot;Comic Sans MS&quot;&gt;&lt;i&gt;Author&lt;/i&gt;&lt;/font&gt;&lt;/h3&gt;" style="text;html=1;align=center;verticalAlign=middle;resizable=0;points=[];autosize=1;strokeColor=none;fillColor=none;" parent="1" vertex="1">
          <mxGeometry x="827.0000000000001" y="1460" width="80" height="60" as="geometry" />
        </mxCell>
        <mxCell id="Jm13uPxr4EKzJRPJZaWk-1" value="&lt;h3&gt;&lt;font face=&quot;Comic Sans MS&quot;&gt;&lt;span style=&quot;font-size: 18px;&quot;&gt;Book_Order&lt;/span&gt;&lt;/font&gt;&lt;/h3&gt;" style="text;html=1;align=center;verticalAlign=middle;resizable=0;points=[];autosize=1;strokeColor=none;fillColor=none;" parent="1" vertex="1">
          <mxGeometry x="800.0000000000001" y="560" width="130" height="60" as="geometry" />
        </mxCell>
        <mxCell id="aYWM_xXWDLsEaRjDZUIt-1" value="&lt;h3 style=&quot;text-wrap-mode: wrap;&quot;&gt;&lt;font style=&quot;font-size: 18px;&quot; face=&quot;Comic Sans MS&quot;&gt;&lt;i&gt;Wishlist&lt;/i&gt;&lt;/font&gt;&lt;/h3&gt;" style="text;html=1;align=center;verticalAlign=middle;resizable=0;points=[];autosize=1;strokeColor=none;fillColor=none;" parent="1" vertex="1">
          <mxGeometry x="830.0000000000001" y="1620" width="90" height="60" as="geometry" />
        </mxCell>
        <mxCell id="aYWM_xXWDLsEaRjDZUIt-2" value="" style="shape=table;startSize=0;container=1;collapsible=0;childLayout=tableLayout;fontSize=16;" parent="1" vertex="1">
          <mxGeometry x="830.0000000000001" y="1680" width="300" height="60" as="geometry" />
        </mxCell>
        <mxCell id="aYWM_xXWDLsEaRjDZUIt-3" value="" style="shape=tableRow;horizontal=0;startSize=0;swimlaneHead=0;swimlaneBody=0;strokeColor=inherit;top=0;left=0;bottom=0;right=0;collapsible=0;dropTarget=0;fillColor=none;points=[[0,0.5],[1,0.5]];portConstraint=eastwest;fontSize=16;" parent="aYWM_xXWDLsEaRjDZUIt-2" vertex="1">
          <mxGeometry width="300" height="60" as="geometry" />
        </mxCell>
        <mxCell id="aYWM_xXWDLsEaRjDZUIt-4" value="&lt;h3&gt;&lt;font style=&quot;font-size: 18px;&quot; face=&quot;Comic Sans MS&quot;&gt;&lt;u&gt;user_id&lt;/u&gt;&lt;/font&gt;&lt;/h3&gt;" style="shape=partialRectangle;html=1;whiteSpace=wrap;connectable=0;strokeColor=inherit;overflow=hidden;fillColor=none;top=0;left=0;bottom=0;right=0;pointerEvents=1;fontSize=16;" parent="aYWM_xXWDLsEaRjDZUIt-3" vertex="1">
          <mxGeometry width="150" height="60" as="geometry">
            <mxRectangle width="150" height="60" as="alternateBounds" />
          </mxGeometry>
        </mxCell>
        <mxCell id="CLvTc3ZVZl-xjEGIvOkZ-2" value="&lt;h3&gt;&lt;font style=&quot;font-size: 18px;&quot; face=&quot;Comic Sans MS&quot;&gt;&lt;u&gt;Book_id&lt;/u&gt;&lt;/font&gt;&lt;/h3&gt;" style="shape=partialRectangle;html=1;whiteSpace=wrap;connectable=0;strokeColor=inherit;overflow=hidden;fillColor=none;top=0;left=0;bottom=0;right=0;pointerEvents=1;fontSize=16;" vertex="1" parent="aYWM_xXWDLsEaRjDZUIt-3">
          <mxGeometry x="150" width="150" height="60" as="geometry">
            <mxRectangle width="150" height="60" as="alternateBounds" />
          </mxGeometry>
        </mxCell>
        <mxCell id="HGFw2Lc2imS82LwZnOyN-1" value="&lt;h3 style=&quot;text-wrap-mode: wrap;&quot;&gt;&lt;font style=&quot;font-size: 18px;&quot; face=&quot;Comic Sans MS&quot;&gt;&lt;i&gt;Cart&lt;/i&gt;&lt;/font&gt;&lt;/h3&gt;" style="text;html=1;align=center;verticalAlign=middle;resizable=0;points=[];autosize=1;strokeColor=none;fillColor=none;" parent="1" vertex="1">
          <mxGeometry x="830.0000000000001" y="1770" width="60" height="60" as="geometry" />
        </mxCell>
        <mxCell id="HGFw2Lc2imS82LwZnOyN-2" value="" style="shape=table;startSize=0;container=1;collapsible=0;childLayout=tableLayout;fontSize=16;" parent="1" vertex="1">
          <mxGeometry x="830.0000000000001" y="1830" width="450" height="60" as="geometry" />
        </mxCell>
        <mxCell id="HGFw2Lc2imS82LwZnOyN-3" value="" style="shape=tableRow;horizontal=0;startSize=0;swimlaneHead=0;swimlaneBody=0;strokeColor=inherit;top=0;left=0;bottom=0;right=0;collapsible=0;dropTarget=0;fillColor=none;points=[[0,0.5],[1,0.5]];portConstraint=eastwest;fontSize=16;" parent="HGFw2Lc2imS82LwZnOyN-2" vertex="1">
          <mxGeometry width="450" height="60" as="geometry" />
        </mxCell>
        <mxCell id="HGFw2Lc2imS82LwZnOyN-4" value="&lt;h3&gt;&lt;font style=&quot;font-size: 18px;&quot; face=&quot;Comic Sans MS&quot;&gt;&lt;u&gt;user_id&lt;/u&gt;&lt;/font&gt;&lt;/h3&gt;" style="shape=partialRectangle;html=1;whiteSpace=wrap;connectable=0;strokeColor=inherit;overflow=hidden;fillColor=none;top=0;left=0;bottom=0;right=0;pointerEvents=1;fontSize=16;" parent="HGFw2Lc2imS82LwZnOyN-3" vertex="1">
          <mxGeometry width="150" height="60" as="geometry">
            <mxRectangle width="150" height="60" as="alternateBounds" />
          </mxGeometry>
        </mxCell>
        <mxCell id="CLvTc3ZVZl-xjEGIvOkZ-1" value="&lt;h3&gt;&lt;font style=&quot;font-size: 18px;&quot; face=&quot;Comic Sans MS&quot;&gt;&lt;u&gt;Book_id&lt;/u&gt;&lt;/font&gt;&lt;/h3&gt;" style="shape=partialRectangle;html=1;whiteSpace=wrap;connectable=0;strokeColor=inherit;overflow=hidden;fillColor=none;top=0;left=0;bottom=0;right=0;pointerEvents=1;fontSize=16;" vertex="1" parent="HGFw2Lc2imS82LwZnOyN-3">
          <mxGeometry x="150" width="150" height="60" as="geometry">
            <mxRectangle width="150" height="60" as="alternateBounds" />
          </mxGeometry>
        </mxCell>
        <mxCell id="1HpSzUKRXyWsN91DOIg1-1" value="&lt;h3&gt;&lt;font face=&quot;Comic Sans MS&quot;&gt;&lt;span style=&quot;font-size: 18px;&quot;&gt;quantity&lt;/span&gt;&lt;/font&gt;&lt;/h3&gt;" style="shape=partialRectangle;html=1;whiteSpace=wrap;connectable=0;strokeColor=inherit;overflow=hidden;fillColor=none;top=0;left=0;bottom=0;right=0;pointerEvents=1;fontSize=16;" vertex="1" parent="HGFw2Lc2imS82LwZnOyN-3">
          <mxGeometry x="300" width="150" height="60" as="geometry">
            <mxRectangle width="150" height="60" as="alternateBounds" />
          </mxGeometry>
        </mxCell>
        <mxCell id="HGFw2Lc2imS82LwZnOyN-6" value="&lt;h3 style=&quot;text-wrap-mode: wrap;&quot;&gt;&lt;font face=&quot;Comic Sans MS&quot;&gt;&lt;span style=&quot;font-size: 18px;&quot;&gt;&lt;i&gt;Order_items&lt;/i&gt;&lt;/span&gt;&lt;/font&gt;&lt;/h3&gt;" style="text;html=1;align=center;verticalAlign=middle;resizable=0;points=[];autosize=1;strokeColor=none;fillColor=none;" parent="1" vertex="1">
          <mxGeometry x="830.0000000000001" y="1920" width="130" height="60" as="geometry" />
        </mxCell>
        <mxCell id="HGFw2Lc2imS82LwZnOyN-7" value="" style="shape=table;startSize=0;container=1;collapsible=0;childLayout=tableLayout;fontSize=16;" parent="1" vertex="1">
          <mxGeometry x="825.0000000000001" y="1980" width="370" height="60" as="geometry" />
        </mxCell>
        <mxCell id="HGFw2Lc2imS82LwZnOyN-8" value="" style="shape=tableRow;horizontal=0;startSize=0;swimlaneHead=0;swimlaneBody=0;strokeColor=inherit;top=0;left=0;bottom=0;right=0;collapsible=0;dropTarget=0;fillColor=none;points=[[0,0.5],[1,0.5]];portConstraint=eastwest;fontSize=16;" parent="HGFw2Lc2imS82LwZnOyN-7" vertex="1">
          <mxGeometry width="370" height="60" as="geometry" />
        </mxCell>
        <mxCell id="HGFw2Lc2imS82LwZnOyN-9" value="&lt;h3&gt;&lt;font style=&quot;font-size: 18px;&quot; face=&quot;Comic Sans MS&quot;&gt;&lt;u&gt;Book_id&lt;/u&gt;&lt;/font&gt;&lt;/h3&gt;" style="shape=partialRectangle;html=1;whiteSpace=wrap;connectable=0;strokeColor=inherit;overflow=hidden;fillColor=none;top=0;left=0;bottom=0;right=0;pointerEvents=1;fontSize=16;" parent="HGFw2Lc2imS82LwZnOyN-8" vertex="1">
          <mxGeometry width="150" height="60" as="geometry">
            <mxRectangle width="150" height="60" as="alternateBounds" />
          </mxGeometry>
        </mxCell>
        <mxCell id="HGFw2Lc2imS82LwZnOyN-10" value="&lt;h3&gt;&lt;font style=&quot;font-size: 18px;&quot; face=&quot;Comic Sans MS&quot;&gt;&lt;u&gt;Order_id&lt;/u&gt;&lt;/font&gt;&lt;/h3&gt;" style="shape=partialRectangle;html=1;whiteSpace=wrap;connectable=0;strokeColor=inherit;overflow=hidden;fillColor=none;top=0;left=0;bottom=0;right=0;pointerEvents=1;fontSize=16;" parent="HGFw2Lc2imS82LwZnOyN-8" vertex="1">
          <mxGeometry x="150" width="110" height="60" as="geometry">
            <mxRectangle width="110" height="60" as="alternateBounds" />
          </mxGeometry>
        </mxCell>
        <mxCell id="gAVx80KIdzMPCXC7FjRy-1" value="&lt;h3&gt;&lt;font face=&quot;Comic Sans MS&quot;&gt;&lt;span style=&quot;font-size: 18px;&quot;&gt;quantity&lt;/span&gt;&lt;/font&gt;&lt;/h3&gt;" style="shape=partialRectangle;html=1;whiteSpace=wrap;connectable=0;strokeColor=inherit;overflow=hidden;fillColor=none;top=0;left=0;bottom=0;right=0;pointerEvents=1;fontSize=16;" vertex="1" parent="HGFw2Lc2imS82LwZnOyN-8">
          <mxGeometry x="260" width="110" height="60" as="geometry">
            <mxRectangle width="110" height="60" as="alternateBounds" />
          </mxGeometry>
        </mxCell>
        <mxCell id="ukzKCIoEDUyiHv8VHcQf-1" value="&lt;h3 style=&quot;text-wrap-mode: wrap;&quot;&gt;&lt;font style=&quot;font-size: 18px;&quot; face=&quot;Comic Sans MS&quot;&gt;&lt;i&gt;Admin&lt;/i&gt;&lt;/font&gt;&lt;/h3&gt;" style="text;html=1;align=center;verticalAlign=middle;resizable=0;points=[];autosize=1;strokeColor=none;fillColor=none;" parent="1" vertex="1">
          <mxGeometry x="825.0000000000001" y="960" width="80" height="60" as="geometry" />
        </mxCell>
        <mxCell id="KBDAj_kLETosjQnfp7m0-2" value="" style="shape=table;startSize=0;container=1;collapsible=0;childLayout=tableLayout;fontSize=16;" parent="1" vertex="1">
          <mxGeometry x="827.0000000000001" y="1520" width="370" height="60" as="geometry" />
        </mxCell>
        <mxCell id="KBDAj_kLETosjQnfp7m0-3" value="" style="shape=tableRow;horizontal=0;startSize=0;swimlaneHead=0;swimlaneBody=0;strokeColor=inherit;top=0;left=0;bottom=0;right=0;collapsible=0;dropTarget=0;fillColor=none;points=[[0,0.5],[1,0.5]];portConstraint=eastwest;fontSize=16;" parent="KBDAj_kLETosjQnfp7m0-2" vertex="1">
          <mxGeometry width="370" height="60" as="geometry" />
        </mxCell>
        <mxCell id="KBDAj_kLETosjQnfp7m0-4" value="&lt;h3&gt;&lt;font style=&quot;font-size: 18px;&quot; face=&quot;Comic Sans MS&quot;&gt;Author_name&lt;/font&gt;&lt;/h3&gt;" style="shape=partialRectangle;html=1;whiteSpace=wrap;connectable=0;strokeColor=inherit;overflow=hidden;fillColor=none;top=0;left=0;bottom=0;right=0;pointerEvents=1;fontSize=16;" parent="KBDAj_kLETosjQnfp7m0-3" vertex="1">
          <mxGeometry width="150" height="60" as="geometry">
            <mxRectangle width="150" height="60" as="alternateBounds" />
          </mxGeometry>
        </mxCell>
        <mxCell id="KBDAj_kLETosjQnfp7m0-5" value="&lt;h3&gt;&lt;font style=&quot;font-size: 18px;&quot; face=&quot;Comic Sans MS&quot;&gt;nationality&lt;/font&gt;&lt;/h3&gt;" style="shape=partialRectangle;html=1;whiteSpace=wrap;connectable=0;strokeColor=inherit;overflow=hidden;fillColor=none;top=0;left=0;bottom=0;right=0;pointerEvents=1;fontSize=16;" parent="KBDAj_kLETosjQnfp7m0-3" vertex="1">
          <mxGeometry x="150" width="110" height="60" as="geometry">
            <mxRectangle width="110" height="60" as="alternateBounds" />
          </mxGeometry>
        </mxCell>
        <mxCell id="92BcghyfWNCM0nL6Dias-1" value="&lt;h3&gt;&lt;font style=&quot;font-size: 18px;&quot; face=&quot;Comic Sans MS&quot;&gt;Book_id&lt;/font&gt;&lt;/h3&gt;" style="shape=partialRectangle;html=1;whiteSpace=wrap;connectable=0;strokeColor=inherit;overflow=hidden;fillColor=none;top=0;left=0;bottom=0;right=0;pointerEvents=1;fontSize=16;" parent="KBDAj_kLETosjQnfp7m0-3" vertex="1">
          <mxGeometry x="260" width="110" height="60" as="geometry">
            <mxRectangle width="110" height="60" as="alternateBounds" />
          </mxGeometry>
        </mxCell>
        <mxCell id="ukzKCIoEDUyiHv8VHcQf-2" value="" style="shape=table;startSize=0;container=1;collapsible=0;childLayout=tableLayout;fontSize=16;" parent="1" vertex="1">
          <mxGeometry x="825.0000000000001" y="1020" width="380.0000000000002" height="60" as="geometry" />
        </mxCell>
        <mxCell id="ukzKCIoEDUyiHv8VHcQf-3" value="" style="shape=tableRow;horizontal=0;startSize=0;swimlaneHead=0;swimlaneBody=0;strokeColor=inherit;top=0;left=0;bottom=0;right=0;collapsible=0;dropTarget=0;fillColor=none;points=[[0,0.5],[1,0.5]];portConstraint=eastwest;fontSize=16;" parent="ukzKCIoEDUyiHv8VHcQf-2" vertex="1">
          <mxGeometry width="380.0000000000002" height="60" as="geometry" />
        </mxCell>
        <mxCell id="ukzKCIoEDUyiHv8VHcQf-4" value="&lt;h3&gt;&lt;font style=&quot;font-size: 18px;&quot; face=&quot;Comic Sans MS&quot;&gt;&lt;u&gt;Admin_id&lt;/u&gt;&lt;/font&gt;&lt;/h3&gt;" style="shape=partialRectangle;html=1;whiteSpace=wrap;connectable=0;strokeColor=inherit;overflow=hidden;fillColor=none;top=0;left=0;bottom=0;right=0;pointerEvents=1;fontSize=16;" parent="ukzKCIoEDUyiHv8VHcQf-3" vertex="1">
          <mxGeometry width="100" height="60" as="geometry">
            <mxRectangle width="100" height="60" as="alternateBounds" />
          </mxGeometry>
        </mxCell>
        <mxCell id="ukzKCIoEDUyiHv8VHcQf-5" value="&lt;h3&gt;&lt;font style=&quot;font-size: 18px;&quot; face=&quot;Comic Sans MS&quot;&gt;Admin_name&lt;/font&gt;&lt;/h3&gt;" style="shape=partialRectangle;html=1;whiteSpace=wrap;connectable=0;strokeColor=inherit;overflow=hidden;fillColor=none;top=0;left=0;bottom=0;right=0;pointerEvents=1;fontSize=16;" parent="ukzKCIoEDUyiHv8VHcQf-3" vertex="1">
          <mxGeometry x="100" width="140" height="60" as="geometry">
            <mxRectangle width="140" height="60" as="alternateBounds" />
          </mxGeometry>
        </mxCell>
        <mxCell id="CJ_9kEUuGfMt34SNq-Om-1" value="&lt;h3&gt;&lt;font style=&quot;font-size: 18px;&quot; face=&quot;Comic Sans MS&quot;&gt;password&lt;/font&gt;&lt;/h3&gt;" style="shape=partialRectangle;html=1;whiteSpace=wrap;connectable=0;strokeColor=inherit;overflow=hidden;fillColor=none;top=0;left=0;bottom=0;right=0;pointerEvents=1;fontSize=16;" parent="ukzKCIoEDUyiHv8VHcQf-3" vertex="1">
          <mxGeometry x="240" width="140" height="60" as="geometry">
            <mxRectangle width="140" height="60" as="alternateBounds" />
          </mxGeometry>
        </mxCell>
        <mxCell id="DHRzGNLstE_10N6GFfIc-2" value="" style="endArrow=none;dashed=1;html=1;rounded=0;" parent="1" edge="1">
          <mxGeometry width="50" height="50" relative="1" as="geometry">
            <mxPoint x="868.0000000000001" y="2026" as="sourcePoint" />
            <mxPoint x="938.0000000000001" y="2026" as="targetPoint" />
          </mxGeometry>
        </mxCell>
        <mxCell id="r3oKYjJ3JJJCo-CSTp1B-1" value="" style="endArrow=classic;html=1;rounded=0;exitX=0;exitY=0.5;exitDx=0;exitDy=0;" parent="1" target="2mUnTW2dUmDxQS6wtgPA-9" edge="1">
          <mxGeometry width="50" height="50" relative="1" as="geometry">
            <mxPoint x="827.0000000000001" y="2020" as="sourcePoint" />
            <mxPoint x="732.0000000000001" y="860" as="targetPoint" />
            <Array as="points">
              <mxPoint x="730.0000000000001" y="2020" />
              <mxPoint x="730.0000000000001" y="850" />
              <mxPoint x="772.0000000000001" y="850" />
            </Array>
          </mxGeometry>
        </mxCell>
        <mxCell id="5c0GT67Py8wAUm4sJ-7M-4" style="edgeStyle=orthogonalEdgeStyle;rounded=0;orthogonalLoop=1;jettySize=auto;html=1;exitX=0;exitY=0.5;exitDx=0;exitDy=0;entryX=0;entryY=0.5;entryDx=0;entryDy=0;" parent="1" source="HGFw2Lc2imS82LwZnOyN-3" target="k274HPycMQfgmOG67fI8-19" edge="1">
          <mxGeometry relative="1" as="geometry">
            <Array as="points">
              <mxPoint x="800.0000000000001" y="1860" />
              <mxPoint x="800.0000000000001" y="430" />
            </Array>
          </mxGeometry>
        </mxCell>
        <mxCell id="5c0GT67Py8wAUm4sJ-7M-5" style="edgeStyle=orthogonalEdgeStyle;rounded=0;orthogonalLoop=1;jettySize=auto;html=1;entryX=-0.004;entryY=0.211;entryDx=0;entryDy=0;entryPerimeter=0;" parent="1" source="aYWM_xXWDLsEaRjDZUIt-3" target="k274HPycMQfgmOG67fI8-19" edge="1">
          <mxGeometry relative="1" as="geometry">
            <Array as="points">
              <mxPoint x="770.0000000000001" y="1710" />
              <mxPoint x="770.0000000000001" y="413" />
            </Array>
          </mxGeometry>
        </mxCell>
        <mxCell id="5c0GT67Py8wAUm4sJ-7M-6" value="" style="endArrow=none;dashed=1;html=1;rounded=0;" parent="1" edge="1">
          <mxGeometry width="50" height="50" relative="1" as="geometry">
            <mxPoint x="870.0000000000001" y="1728.82" as="sourcePoint" />
            <mxPoint x="940.0000000000001" y="1728.82" as="targetPoint" />
          </mxGeometry>
        </mxCell>
        <mxCell id="DHRzGNLstE_10N6GFfIc-3" value="" style="endArrow=none;dashed=1;html=1;rounded=0;" parent="1" edge="1">
          <mxGeometry width="50" height="50" relative="1" as="geometry">
            <mxPoint x="870.0000000000001" y="1880" as="sourcePoint" />
            <mxPoint x="940.0000000000001" y="1880" as="targetPoint" />
          </mxGeometry>
        </mxCell>
        <mxCell id="92BcghyfWNCM0nL6Dias-2" value="" style="endArrow=none;dashed=1;html=1;rounded=0;" parent="1" edge="1">
          <mxGeometry width="50" height="50" relative="1" as="geometry">
            <mxPoint x="1110" y="1570" as="sourcePoint" />
            <mxPoint x="1180" y="1570" as="targetPoint" />
          </mxGeometry>
        </mxCell>
        <mxCell id="92BcghyfWNCM0nL6Dias-3" style="edgeStyle=orthogonalEdgeStyle;rounded=0;orthogonalLoop=1;jettySize=auto;html=1;entryX=0.001;entryY=0.847;entryDx=0;entryDy=0;entryPerimeter=0;" parent="1" source="KBDAj_kLETosjQnfp7m0-3" target="2mUnTW2dUmDxQS6wtgPA-9" edge="1">
          <mxGeometry relative="1" as="geometry">
            <Array as="points">
              <mxPoint x="1130" y="1150" />
              <mxPoint x="805.0000000000001" y="1150" />
              <mxPoint x="805.0000000000001" y="861" />
            </Array>
          </mxGeometry>
        </mxCell>
        <mxCell id="7_RNzJqhjhNTGQxqvAYW-1" value="&lt;h3 style=&quot;text-wrap-mode: wrap;&quot;&gt;&lt;font face=&quot;Comic Sans MS&quot;&gt;&lt;span style=&quot;font-size: 18px;&quot;&gt;&lt;i&gt;Book_&lt;/i&gt;&lt;/span&gt;&lt;/font&gt;&lt;i style=&quot;font-size: 18px; font-family: &amp;quot;Comic Sans MS&amp;quot;; background-color: transparent; color: light-dark(rgb(0, 0, 0), rgb(255, 255, 255));&quot;&gt;Category&lt;/i&gt;&lt;/h3&gt;" style="text;html=1;align=center;verticalAlign=middle;resizable=0;points=[];autosize=1;strokeColor=none;fillColor=none;" parent="1" vertex="1">
          <mxGeometry x="810.0000000000001" y="2080" width="150" height="60" as="geometry" />
        </mxCell>
        <mxCell id="7_RNzJqhjhNTGQxqvAYW-2" value="" style="shape=table;startSize=0;container=1;collapsible=0;childLayout=tableLayout;fontSize=16;" parent="1" vertex="1">
          <mxGeometry x="820.0000000000001" y="2140" width="260" height="60" as="geometry" />
        </mxCell>
        <mxCell id="7_RNzJqhjhNTGQxqvAYW-3" value="" style="shape=tableRow;horizontal=0;startSize=0;swimlaneHead=0;swimlaneBody=0;strokeColor=inherit;top=0;left=0;bottom=0;right=0;collapsible=0;dropTarget=0;fillColor=none;points=[[0,0.5],[1,0.5]];portConstraint=eastwest;fontSize=16;" parent="7_RNzJqhjhNTGQxqvAYW-2" vertex="1">
          <mxGeometry width="260" height="60" as="geometry" />
        </mxCell>
        <mxCell id="7_RNzJqhjhNTGQxqvAYW-4" value="&lt;h3&gt;&lt;font style=&quot;font-size: 18px;&quot; face=&quot;Comic Sans MS&quot;&gt;Cat_id&lt;/font&gt;&lt;/h3&gt;" style="shape=partialRectangle;html=1;whiteSpace=wrap;connectable=0;strokeColor=inherit;overflow=hidden;fillColor=none;top=0;left=0;bottom=0;right=0;pointerEvents=1;fontSize=16;" parent="7_RNzJqhjhNTGQxqvAYW-3" vertex="1">
          <mxGeometry width="150" height="60" as="geometry">
            <mxRectangle width="150" height="60" as="alternateBounds" />
          </mxGeometry>
        </mxCell>
        <mxCell id="7_RNzJqhjhNTGQxqvAYW-5" value="&lt;h3&gt;&lt;font style=&quot;font-size: 18px;&quot; face=&quot;Comic Sans MS&quot;&gt;Book_id&lt;/font&gt;&lt;/h3&gt;" style="shape=partialRectangle;html=1;whiteSpace=wrap;connectable=0;strokeColor=inherit;overflow=hidden;fillColor=none;top=0;left=0;bottom=0;right=0;pointerEvents=1;fontSize=16;" parent="7_RNzJqhjhNTGQxqvAYW-3" vertex="1">
          <mxGeometry x="150" width="110" height="60" as="geometry">
            <mxRectangle width="110" height="60" as="alternateBounds" />
          </mxGeometry>
        </mxCell>
        <mxCell id="7_RNzJqhjhNTGQxqvAYW-6" value="" style="endArrow=none;dashed=1;html=1;rounded=0;" parent="1" edge="1">
          <mxGeometry width="50" height="50" relative="1" as="geometry">
            <mxPoint x="860.0000000000001" y="2190" as="sourcePoint" />
            <mxPoint x="930.0000000000001" y="2190" as="targetPoint" />
          </mxGeometry>
        </mxCell>
        <mxCell id="nhXx8RQs55BFg0LJnAId-1" value="" style="endArrow=none;dashed=1;html=1;rounded=0;" parent="1" source="nhXx8RQs55BFg0LJnAId-2" edge="1">
          <mxGeometry width="50" height="50" relative="1" as="geometry">
            <mxPoint x="995.0000000000001" y="2190" as="sourcePoint" />
            <mxPoint x="1065" y="2190" as="targetPoint" />
          </mxGeometry>
        </mxCell>
        <mxCell id="nhXx8RQs55BFg0LJnAId-3" value="" style="endArrow=none;dashed=1;html=1;rounded=0;" parent="1" target="nhXx8RQs55BFg0LJnAId-2" edge="1">
          <mxGeometry width="50" height="50" relative="1" as="geometry">
            <mxPoint x="995.0000000000001" y="2190" as="sourcePoint" />
            <mxPoint x="1065" y="2190" as="targetPoint" />
          </mxGeometry>
        </mxCell>
        <mxCell id="nhXx8RQs55BFg0LJnAId-2" value="" style="line;strokeWidth=1;rotatable=0;dashed=0;labelPosition=right;align=left;verticalAlign=middle;spacingTop=0;spacingLeft=6;points=[];portConstraint=eastwest;" parent="1" vertex="1">
          <mxGeometry x="850.0000000000001" y="2180" width="216" height="10" as="geometry" />
        </mxCell>
        <mxCell id="nhXx8RQs55BFg0LJnAId-4" value="" style="endArrow=none;dashed=1;html=1;rounded=0;" parent="1" edge="1">
          <mxGeometry width="50" height="50" relative="1" as="geometry">
            <mxPoint x="995.0000000000001" y="2190" as="sourcePoint" />
            <mxPoint x="1065" y="2190" as="targetPoint" />
          </mxGeometry>
        </mxCell>
        <mxCell id="quSrVPDgwwLsvAJJZSLh-1" style="edgeStyle=orthogonalEdgeStyle;rounded=0;orthogonalLoop=1;jettySize=auto;html=1;entryX=0;entryY=0.5;entryDx=0;entryDy=0;exitX=0;exitY=0.5;exitDx=0;exitDy=0;" parent="1" source="7_RNzJqhjhNTGQxqvAYW-3" target="5kJfIicfpMfOQa_-f72T-15" edge="1">
          <mxGeometry relative="1" as="geometry">
            <mxPoint x="815.0000000000001" y="1229.75" as="targetPoint" />
            <mxPoint x="810.0000000000001" y="2169.75" as="sourcePoint" />
            <Array as="points">
              <mxPoint x="811.0000000000001" y="2170" />
              <mxPoint x="811.0000000000001" y="1230" />
            </Array>
          </mxGeometry>
        </mxCell>
        <mxCell id="7oY0e0v0SkWAs8uRAXBo-1" value="&lt;h3 style=&quot;text-wrap-mode: wrap;&quot;&gt;&lt;font face=&quot;Comic Sans MS&quot;&gt;&lt;span style=&quot;font-size: 18px;&quot;&gt;&lt;i&gt;Book_&lt;/i&gt;&lt;/span&gt;&lt;/font&gt;&lt;i style=&quot;font-size: 18px; font-family: &amp;quot;Comic Sans MS&amp;quot;; background-color: transparent; color: light-dark(rgb(0, 0, 0), rgb(255, 255, 255));&quot;&gt;Publisher&lt;/i&gt;&lt;/h3&gt;" style="text;html=1;align=center;verticalAlign=middle;resizable=0;points=[];autosize=1;strokeColor=none;fillColor=none;" parent="1" vertex="1">
          <mxGeometry x="810.0000000000001" y="2240" width="150" height="60" as="geometry" />
        </mxCell>
        <mxCell id="7oY0e0v0SkWAs8uRAXBo-2" value="" style="shape=table;startSize=0;container=1;collapsible=0;childLayout=tableLayout;fontSize=16;" parent="1" vertex="1">
          <mxGeometry x="820.0000000000001" y="2300" width="260" height="60" as="geometry" />
        </mxCell>
        <mxCell id="7oY0e0v0SkWAs8uRAXBo-3" value="" style="shape=tableRow;horizontal=0;startSize=0;swimlaneHead=0;swimlaneBody=0;strokeColor=inherit;top=0;left=0;bottom=0;right=0;collapsible=0;dropTarget=0;fillColor=none;points=[[0,0.5],[1,0.5]];portConstraint=eastwest;fontSize=16;" parent="7oY0e0v0SkWAs8uRAXBo-2" vertex="1">
          <mxGeometry width="260" height="60" as="geometry" />
        </mxCell>
        <mxCell id="7oY0e0v0SkWAs8uRAXBo-4" value="&lt;h3&gt;&lt;font style=&quot;font-size: 18px;&quot; face=&quot;Comic Sans MS&quot;&gt;Publisher_name&lt;/font&gt;&lt;/h3&gt;" style="shape=partialRectangle;html=1;whiteSpace=wrap;connectable=0;strokeColor=inherit;overflow=hidden;fillColor=none;top=0;left=0;bottom=0;right=0;pointerEvents=1;fontSize=16;" parent="7oY0e0v0SkWAs8uRAXBo-3" vertex="1">
          <mxGeometry width="150" height="60" as="geometry">
            <mxRectangle width="150" height="60" as="alternateBounds" />
          </mxGeometry>
        </mxCell>
        <mxCell id="7oY0e0v0SkWAs8uRAXBo-5" value="&lt;h3&gt;&lt;font style=&quot;font-size: 18px;&quot; face=&quot;Comic Sans MS&quot;&gt;Book_id&lt;/font&gt;&lt;/h3&gt;" style="shape=partialRectangle;html=1;whiteSpace=wrap;connectable=0;strokeColor=inherit;overflow=hidden;fillColor=none;top=0;left=0;bottom=0;right=0;pointerEvents=1;fontSize=16;" parent="7oY0e0v0SkWAs8uRAXBo-3" vertex="1">
          <mxGeometry x="150" width="110" height="60" as="geometry">
            <mxRectangle width="110" height="60" as="alternateBounds" />
          </mxGeometry>
        </mxCell>
        <mxCell id="7oY0e0v0SkWAs8uRAXBo-6" value="" style="endArrow=none;dashed=1;html=1;rounded=0;" parent="1" edge="1">
          <mxGeometry width="50" height="50" relative="1" as="geometry">
            <mxPoint x="860.0000000000001" y="2350" as="sourcePoint" />
            <mxPoint x="930.0000000000001" y="2350" as="targetPoint" />
          </mxGeometry>
        </mxCell>
        <mxCell id="7oY0e0v0SkWAs8uRAXBo-7" value="" style="endArrow=none;dashed=1;html=1;rounded=0;" parent="1" source="7oY0e0v0SkWAs8uRAXBo-9" edge="1">
          <mxGeometry width="50" height="50" relative="1" as="geometry">
            <mxPoint x="995.0000000000001" y="2350" as="sourcePoint" />
            <mxPoint x="1065" y="2350" as="targetPoint" />
          </mxGeometry>
        </mxCell>
        <mxCell id="7oY0e0v0SkWAs8uRAXBo-8" value="" style="endArrow=none;dashed=1;html=1;rounded=0;" parent="1" target="7oY0e0v0SkWAs8uRAXBo-9" edge="1">
          <mxGeometry width="50" height="50" relative="1" as="geometry">
            <mxPoint x="995.0000000000001" y="2350" as="sourcePoint" />
            <mxPoint x="1065" y="2350" as="targetPoint" />
          </mxGeometry>
        </mxCell>
        <mxCell id="7oY0e0v0SkWAs8uRAXBo-10" value="" style="endArrow=none;dashed=1;html=1;rounded=0;" parent="1" source="7oY0e0v0SkWAs8uRAXBo-9" edge="1">
          <mxGeometry width="50" height="50" relative="1" as="geometry">
            <mxPoint x="995.0000000000001" y="2350" as="sourcePoint" />
            <mxPoint x="1065" y="2350" as="targetPoint" />
          </mxGeometry>
        </mxCell>
        <mxCell id="6A8W8_eftgVe3iSXKFHk-1" value="" style="endArrow=none;dashed=1;html=1;rounded=0;" parent="1" edge="1">
          <mxGeometry width="50" height="50" relative="1" as="geometry">
            <mxPoint x="870.0000000000001" y="1420" as="sourcePoint" />
            <mxPoint x="940.0000000000001" y="1420" as="targetPoint" />
          </mxGeometry>
        </mxCell>
        <mxCell id="IZ-1WI-Hn9R-VXoShhAq-1" value="&lt;h3 style=&quot;text-wrap-mode: wrap;&quot;&gt;&lt;font face=&quot;Comic Sans MS&quot;&gt;&lt;span style=&quot;font-size: 18px;&quot;&gt;&lt;i&gt;User_Order&lt;/i&gt;&lt;/span&gt;&lt;/font&gt;&lt;/h3&gt;" style="text;html=1;align=center;verticalAlign=middle;resizable=0;points=[];autosize=1;strokeColor=none;fillColor=none;" parent="1" vertex="1">
          <mxGeometry x="825.0000000000001" y="2420" width="130" height="60" as="geometry" />
        </mxCell>
        <mxCell id="IZ-1WI-Hn9R-VXoShhAq-2" value="" style="shape=table;startSize=0;container=1;collapsible=0;childLayout=tableLayout;fontSize=16;" parent="1" vertex="1">
          <mxGeometry x="825.0000000000001" y="2480" width="260" height="60" as="geometry" />
        </mxCell>
        <mxCell id="IZ-1WI-Hn9R-VXoShhAq-3" value="" style="shape=tableRow;horizontal=0;startSize=0;swimlaneHead=0;swimlaneBody=0;strokeColor=inherit;top=0;left=0;bottom=0;right=0;collapsible=0;dropTarget=0;fillColor=none;points=[[0,0.5],[1,0.5]];portConstraint=eastwest;fontSize=16;" parent="IZ-1WI-Hn9R-VXoShhAq-2" vertex="1">
          <mxGeometry width="260" height="60" as="geometry" />
        </mxCell>
        <mxCell id="IZ-1WI-Hn9R-VXoShhAq-4" value="&lt;h3&gt;&lt;font style=&quot;font-size: 18px;&quot; face=&quot;Comic Sans MS&quot;&gt;user_id&lt;/font&gt;&lt;/h3&gt;" style="shape=partialRectangle;html=1;whiteSpace=wrap;connectable=0;strokeColor=inherit;overflow=hidden;fillColor=none;top=0;left=0;bottom=0;right=0;pointerEvents=1;fontSize=16;" parent="IZ-1WI-Hn9R-VXoShhAq-3" vertex="1">
          <mxGeometry width="150" height="60" as="geometry">
            <mxRectangle width="150" height="60" as="alternateBounds" />
          </mxGeometry>
        </mxCell>
        <mxCell id="IZ-1WI-Hn9R-VXoShhAq-5" value="&lt;h3&gt;&lt;font style=&quot;font-size: 18px;&quot; face=&quot;Comic Sans MS&quot;&gt;&lt;u&gt;Order_id&lt;/u&gt;&lt;/font&gt;&lt;/h3&gt;" style="shape=partialRectangle;html=1;whiteSpace=wrap;connectable=0;strokeColor=inherit;overflow=hidden;fillColor=none;top=0;left=0;bottom=0;right=0;pointerEvents=1;fontSize=16;" parent="IZ-1WI-Hn9R-VXoShhAq-3" vertex="1">
          <mxGeometry x="150" width="110" height="60" as="geometry">
            <mxRectangle width="110" height="60" as="alternateBounds" />
          </mxGeometry>
        </mxCell>
        <mxCell id="IZ-1WI-Hn9R-VXoShhAq-6" value="" style="endArrow=none;dashed=1;html=1;rounded=0;" parent="1" edge="1">
          <mxGeometry width="50" height="50" relative="1" as="geometry">
            <mxPoint x="865.0000000000001" y="2530" as="sourcePoint" />
            <mxPoint x="935.0000000000001" y="2530" as="targetPoint" />
          </mxGeometry>
        </mxCell>
        <mxCell id="IZ-1WI-Hn9R-VXoShhAq-7" value="" style="endArrow=none;dashed=1;html=1;rounded=0;" parent="1" edge="1">
          <mxGeometry width="50" height="50" relative="1" as="geometry">
            <mxPoint x="1069.9999999999998" y="2530" as="sourcePoint" />
            <mxPoint x="1070" y="2530" as="targetPoint" />
          </mxGeometry>
        </mxCell>
        <mxCell id="IZ-1WI-Hn9R-VXoShhAq-8" value="" style="endArrow=none;dashed=1;html=1;rounded=0;" parent="1" edge="1">
          <mxGeometry width="50" height="50" relative="1" as="geometry">
            <mxPoint x="1000.0000000000001" y="2530" as="sourcePoint" />
            <mxPoint x="1000.0000000000001" y="2530" as="targetPoint" />
          </mxGeometry>
        </mxCell>
        <mxCell id="IZ-1WI-Hn9R-VXoShhAq-10" value="" style="endArrow=none;dashed=1;html=1;rounded=0;" parent="1" edge="1">
          <mxGeometry width="50" height="50" relative="1" as="geometry">
            <mxPoint x="1000.0000000000001" y="2530" as="sourcePoint" />
            <mxPoint x="1070" y="2530" as="targetPoint" />
          </mxGeometry>
        </mxCell>
        <mxCell id="s0qEtZBfNjpuJwHofDeT-4" style="edgeStyle=orthogonalEdgeStyle;rounded=0;orthogonalLoop=1;jettySize=auto;html=1;entryX=0;entryY=0.5;entryDx=0;entryDy=0;" parent="1" source="7oY0e0v0SkWAs8uRAXBo-3" target="XzveBDgiHqrsF6B7Dpj6-3" edge="1">
          <mxGeometry relative="1" as="geometry">
            <mxPoint x="680.0000000000001" y="1390" as="targetPoint" />
            <Array as="points">
              <mxPoint x="805.0000000000001" y="2330" />
              <mxPoint x="805.0000000000001" y="1400" />
            </Array>
          </mxGeometry>
        </mxCell>
        <mxCell id="yfO1p5gHnu82J1HookJV-1" style="edgeStyle=orthogonalEdgeStyle;rounded=0;orthogonalLoop=1;jettySize=auto;html=1;exitX=1;exitY=0.5;exitDx=0;exitDy=0;entryX=0.06;entryY=1;entryDx=0;entryDy=0;entryPerimeter=0;" parent="1" source="7_RNzJqhjhNTGQxqvAYW-3" target="2mUnTW2dUmDxQS6wtgPA-9" edge="1">
          <mxGeometry relative="1" as="geometry">
            <Array as="points">
              <mxPoint x="1350" y="2170" />
              <mxPoint x="1350" y="920" />
              <mxPoint x="880.0000000000001" y="920" />
            </Array>
          </mxGeometry>
        </mxCell>
        <mxCell id="yfO1p5gHnu82J1HookJV-2" style="edgeStyle=orthogonalEdgeStyle;rounded=0;orthogonalLoop=1;jettySize=auto;html=1;exitX=1;exitY=0.5;exitDx=0;exitDy=0;entryX=0.1;entryY=0.993;entryDx=0;entryDy=0;entryPerimeter=0;" parent="1" source="7oY0e0v0SkWAs8uRAXBo-3" target="2mUnTW2dUmDxQS6wtgPA-9" edge="1">
          <mxGeometry relative="1" as="geometry">
            <mxPoint x="1390" y="910" as="targetPoint" />
            <Array as="points">
              <mxPoint x="1370" y="2330" />
              <mxPoint x="1370" y="900" />
              <mxPoint x="916.0000000000001" y="900" />
            </Array>
          </mxGeometry>
        </mxCell>
        <mxCell id="yfO1p5gHnu82J1HookJV-4" style="edgeStyle=orthogonalEdgeStyle;rounded=0;orthogonalLoop=1;jettySize=auto;html=1;exitX=1;exitY=0.5;exitDx=0;exitDy=0;entryX=0.065;entryY=1.05;entryDx=0;entryDy=0;entryPerimeter=0;" parent="1" source="IZ-1WI-Hn9R-VXoShhAq-3" target="Jm13uPxr4EKzJRPJZaWk-3" edge="1">
          <mxGeometry relative="1" as="geometry">
            <mxPoint x="1810" y="704.6666463216145" as="targetPoint" />
            <Array as="points">
              <mxPoint x="2160" y="2510" />
              <mxPoint x="2160" y="720" />
              <mxPoint x="892" y="720" />
              <mxPoint x="892" y="683" />
            </Array>
          </mxGeometry>
        </mxCell>
        <mxCell id="X28WY003pceRsFd1B89a-2" style="edgeStyle=orthogonalEdgeStyle;rounded=0;orthogonalLoop=1;jettySize=auto;html=1;exitX=0;exitY=0.5;exitDx=0;exitDy=0;entryX=0.003;entryY=0.316;entryDx=0;entryDy=0;entryPerimeter=0;" parent="1" source="IZ-1WI-Hn9R-VXoShhAq-3" target="k274HPycMQfgmOG67fI8-19" edge="1">
          <mxGeometry relative="1" as="geometry">
            <Array as="points">
              <mxPoint x="700.0000000000001" y="2510" />
              <mxPoint x="700.0000000000001" y="419" />
            </Array>
          </mxGeometry>
        </mxCell>
        <mxCell id="ZjhiY8pxuXl586U6g6gg-1" value="" style="endArrow=none;dashed=1;html=1;rounded=0;" parent="1" target="7oY0e0v0SkWAs8uRAXBo-9" edge="1">
          <mxGeometry width="50" height="50" relative="1" as="geometry">
            <mxPoint x="995.0000000000001" y="2350" as="sourcePoint" />
            <mxPoint x="1065" y="2350" as="targetPoint" />
          </mxGeometry>
        </mxCell>
        <mxCell id="7oY0e0v0SkWAs8uRAXBo-9" value="" style="line;strokeWidth=1;rotatable=0;dashed=0;labelPosition=right;align=left;verticalAlign=middle;spacingTop=0;spacingLeft=6;points=[];portConstraint=eastwest;" parent="1" vertex="1">
          <mxGeometry x="852.0000000000001" y="2340" width="216" height="10" as="geometry" />
        </mxCell>
        <mxCell id="JHbyRRnrX0lieQcqxh4g-2" value="" style="endArrow=classic;html=1;rounded=0;entryX=0.859;entryY=0.952;entryDx=0;entryDy=0;entryPerimeter=0;" parent="1" target="2mUnTW2dUmDxQS6wtgPA-9" edge="1">
          <mxGeometry width="50" height="50" relative="1" as="geometry">
            <mxPoint x="911" y="1020" as="sourcePoint" />
            <mxPoint x="1360" y="860" as="targetPoint" />
            <Array as="points">
              <mxPoint x="911" y="940" />
              <mxPoint x="1800" y="940" />
            </Array>
          </mxGeometry>
        </mxCell>
        <mxCell id="trXm-e797SM_i9mRum3H-1" value="" style="line;strokeWidth=1;rotatable=0;dashed=0;labelPosition=right;align=left;verticalAlign=middle;spacingTop=0;spacingLeft=6;points=[];portConstraint=eastwest;" vertex="1" parent="1">
          <mxGeometry x="852.0000000000001" y="2020" width="216" height="10" as="geometry" />
        </mxCell>
        <mxCell id="CLvTc3ZVZl-xjEGIvOkZ-3" value="" style="line;strokeWidth=1;rotatable=0;dashed=0;labelPosition=right;align=left;verticalAlign=middle;spacingTop=0;spacingLeft=6;points=[];portConstraint=eastwest;" vertex="1" parent="1">
          <mxGeometry x="869.0000000000001" y="1870" width="216" height="10" as="geometry" />
        </mxCell>
        <mxCell id="CLvTc3ZVZl-xjEGIvOkZ-4" value="" style="line;strokeWidth=1;rotatable=0;dashed=0;labelPosition=right;align=left;verticalAlign=middle;spacingTop=0;spacingLeft=6;points=[];portConstraint=eastwest;" vertex="1" parent="1">
          <mxGeometry x="874.0000000000001" y="1720" width="216" height="10" as="geometry" />
        </mxCell>
        <mxCell id="1HpSzUKRXyWsN91DOIg1-2" value="" style="endArrow=classic;html=1;rounded=0;exitX=0.747;exitY=0.093;exitDx=0;exitDy=0;exitPerimeter=0;entryX=0.06;entryY=1.06;entryDx=0;entryDy=0;entryPerimeter=0;" edge="1" parent="1" target="2mUnTW2dUmDxQS6wtgPA-9">
          <mxGeometry width="50" height="50" relative="1" as="geometry">
            <mxPoint x="1040" y="1680" as="sourcePoint" />
            <mxPoint x="1465.9" y="1003.220048828125" as="targetPoint" />
            <Array as="points">
              <mxPoint x="1040" y="1600" />
              <mxPoint x="1440" y="1600" />
              <mxPoint x="1440" y="1000" />
              <mxPoint x="893" y="1000" />
            </Array>
          </mxGeometry>
        </mxCell>
        <mxCell id="1HpSzUKRXyWsN91DOIg1-3" value="" style="endArrow=classic;html=1;rounded=0;exitX=0.747;exitY=0.093;exitDx=0;exitDy=0;exitPerimeter=0;entryX=0.068;entryY=1.02;entryDx=0;entryDy=0;entryPerimeter=0;" edge="1" parent="1" target="2mUnTW2dUmDxQS6wtgPA-9">
          <mxGeometry width="50" height="50" relative="1" as="geometry">
            <mxPoint x="1067" y="1830" as="sourcePoint" />
            <mxPoint x="920" y="1024" as="targetPoint" />
            <Array as="points">
              <mxPoint x="1067" y="1750" />
              <mxPoint x="1467" y="1750" />
              <mxPoint x="1467" y="1150" />
              <mxPoint x="1467" y="960" />
              <mxPoint x="902" y="960" />
            </Array>
          </mxGeometry>
        </mxCell>
      </root>
    </mxGraphModel>
  </diagram>
</mxfile>
